<svg xmlns="http://www.w3.org/2000/svg" viewBox="124 413 1764 1105" data-bbox="184.0 473.3 1827.5 1458.0">
  <g id="jom">
    <path id="jom-letters" fill="#0E9C47" fill-rule="evenodd" d="M 324 474.963 C 323.175 475.516, 320.839 475.976, 318.809 475.985 C 316.779 475.993, 314.840 476.450, 314.500 477 C 314.160 477.550, 313.002 478, 311.927 478 C 310.852 478, 309.191 478.411, 308.236 478.913 C 307.281 479.415, 303.914 481.023, 300.754 482.485 C 293.178 485.990, 284.194 492.826, 279.398 498.735 C 277.270 501.356, 274.736 504.372, 273.765 505.439 C 272.794 506.505, 272 507.930, 272 508.605 C 272 509.281, 271.663 509.983, 271.250 510.167 C 270.837 510.350, 269.438 512.750, 268.141 515.500 C 266.843 518.250, 265.380 521.281, 264.891 522.236 C 264.401 523.191, 264 524.852, 264 525.927 C 264 527.002, 263.606 528.125, 263.125 528.423 C 260.211 530.224, 260.223 563.784, 263.139 565.586 C 263.613 565.879, 264 566.998, 264 568.073 C 264 569.148, 264.401 570.809, 264.891 571.764 C 265.380 572.719, 266.843 575.750, 268.141 578.500 C 269.438 581.250, 270.837 583.650, 271.250 583.833 C 271.663 584.017, 272.002 584.692, 272.004 585.333 C 272.010 587.384, 282.801 599.525, 288.877 604.318 C 291.646 606.502, 295.655 608.806, 303.986 613 C 305.079 613.550, 306.852 614, 307.927 614 C 309.002 614, 310.160 614.450, 310.500 615 C 310.840 615.550, 312.126 616, 313.359 616 C 314.592 616, 316.133 616.533, 316.784 617.184 C 317.585 617.985, 322.587 618.370, 332.234 618.374 C 345.613 618.380, 350.798 617.625, 356.236 614.877 C 357.191 614.395, 358.457 614, 359.049 614 C 361.342 614, 372.718 607.829, 377 604.263 C 385.562 597.132, 393.945 587.746, 393.982 585.250 C 393.992 584.563, 394.450 584, 395 584 C 395.550 584, 396 583.100, 396 582 C 396 580.900, 396.340 580, 396.756 580 C 397.625 580, 398.888 577.157, 402.085 568 C 404.083 562.277, 404.344 559.665, 404.270 546.143 C 404.218 536.476, 403.781 530.381, 403.093 529.693 C 402.492 529.092, 401.986 527.678, 401.969 526.550 C 401.951 525.423, 400.601 521.811, 398.969 518.525 C 397.336 515.239, 396 511.977, 396 511.275 C 396 510.574, 395.626 510, 395.169 510 C 394.712 510, 393.699 508.766, 392.919 507.257 C 391.226 503.983, 387.806 499.798, 382.912 495.010 C 375.717 487.971, 372.313 485.510, 364.500 481.700 C 362.300 480.627, 359.719 479.356, 358.764 478.875 C 357.809 478.394, 356.211 478, 355.214 478 C 354.216 478, 352.973 477.596, 352.450 477.102 C 350.304 475.075, 326.500 473.284, 324 474.963 M 639.500 641.662 C 630.150 642.354, 619.800 643.405, 616.500 643.999 C 613.200 644.592, 608.700 645.332, 606.500 645.642 C 604.300 645.951, 602.072 646.609, 601.550 647.102 C 601.028 647.596, 599.142 648, 597.359 648 C 595.576 648, 593.840 648.450, 593.500 649 C 593.160 649.550, 592.002 650, 590.927 650 C 589.852 650, 588.191 650.406, 587.236 650.903 C 586.281 651.399, 583.475 652.377, 581 653.076 C 578.525 653.776, 576.072 654.720, 575.550 655.174 C 575.028 655.628, 573.918 656, 573.085 656 C 571.599 656, 556.921 662.670, 552 665.581 C 550.625 666.395, 547.813 667.828, 545.750 668.766 C 543.688 669.704, 542 670.816, 542 671.236 C 542 671.656, 541.438 672.001, 540.750 672.002 C 540.063 672.004, 537.925 673.353, 536 675 C 534.075 676.647, 531.938 677.996, 531.250 677.998 C 530.563 677.999, 530 678.420, 530 678.933 C 530 679.446, 529.153 680.134, 528.119 680.462 C 527.084 680.791, 525.172 681.997, 523.869 683.143 C 522.566 684.289, 519.944 686.413, 518.041 687.863 C 507.056 696.238, 488.444 714.909, 482.010 724.012 C 480.653 725.930, 478.556 728.498, 477.349 729.718 C 476.143 730.938, 474.865 732.850, 474.510 733.968 C 474.155 735.086, 473.446 736, 472.933 736 C 472.420 736, 472 736.590, 472 737.311 C 472 738.033, 471.212 739.518, 470.250 740.612 C 469.288 741.707, 468.008 743.479, 467.406 744.551 C 466.804 745.623, 465.679 747.625, 464.906 749 C 464.133 750.375, 463.263 751.725, 462.973 752 C 461.302 753.586, 448 782.396, 448 784.430 C 448 785.229, 447.550 786.160, 447 786.500 C 446.450 786.840, 446 788.190, 446 789.500 C 446 790.810, 445.550 792.160, 445 792.500 C 444.450 792.840, 444 794.190, 444 795.500 C 444 796.810, 443.550 798.160, 443 798.500 C 442.450 798.840, 442 800.415, 442 802 C 442 803.585, 441.598 805.131, 441.106 805.435 C 440.614 805.739, 439.962 807.678, 439.656 809.744 C 439.351 811.810, 438.603 815.975, 437.994 819 C 434.406 836.819, 432.701 865.365, 434.023 885.500 C 435.494 907.912, 436.075 913.403, 437.084 914.450 C 437.588 914.972, 438 917.308, 438 919.641 C 438 921.974, 438.450 924.160, 439 924.500 C 439.550 924.840, 440 926.640, 440 928.500 C 440 930.360, 440.450 932.160, 441 932.500 C 441.550 932.840, 442 934.415, 442 936 C 442 937.585, 442.450 939.160, 443 939.500 C 443.550 939.840, 444 941.190, 444 942.500 C 444 943.810, 444.450 945.160, 445 945.500 C 445.550 945.840, 446 946.998, 446 948.073 C 446 949.148, 446.412 950.809, 446.916 951.764 C 447.420 952.719, 448.594 955.300, 449.525 957.500 C 450.456 959.700, 451.844 962.807, 452.609 964.404 C 453.374 966.001, 454 967.913, 454 968.654 C 454 969.394, 454.450 970, 455 970 C 455.550 970, 456 970.585, 456 971.301 C 456 973.140, 458.352 977.983, 459.250 977.992 C 459.663 977.996, 460 978.900, 460 980 C 460 981.100, 460.398 982, 460.883 982 C 461.369 982, 462.016 982.788, 462.322 983.750 C 462.881 985.513, 466.050 991.072, 467.025 992 C 467.314 992.275, 469.097 995.087, 470.987 998.250 C 472.876 1001.413, 474.777 1004, 475.211 1004 C 475.645 1004, 476 1004.608, 476 1005.352 C 476 1006.095, 477.238 1008.011, 478.750 1009.608 C 480.263 1011.206, 483.055 1014.535, 484.956 1017.007 C 489.155 1022.466, 509.149 1042.512, 514 1046.127 C 515.925 1047.561, 519.300 1050.359, 521.500 1052.344 C 523.700 1054.329, 526.063 1055.964, 526.750 1055.977 C 527.438 1055.990, 528 1056.395, 528 1056.879 C 528 1057.362, 529.350 1058.317, 531 1059 C 532.650 1059.683, 534 1060.638, 534 1061.121 C 534 1061.605, 534.590 1062, 535.311 1062 C 536.033 1062, 537.496 1062.787, 538.562 1063.750 C 541.165 1066.098, 553.603 1072.671, 565.500 1077.985 C 568.250 1079.214, 571.281 1080.620, 572.236 1081.109 C 573.191 1081.599, 574.852 1082, 575.927 1082 C 577.002 1082, 578.105 1082.361, 578.378 1082.802 C 578.650 1083.243, 581.180 1084.232, 584 1085 C 586.820 1085.768, 589.350 1086.757, 589.622 1087.198 C 589.895 1087.639, 591.640 1088, 593.500 1088 C 595.360 1088, 597.160 1088.450, 597.500 1089 C 597.840 1089.550, 599.351 1090, 600.859 1090 C 602.367 1090, 604.028 1090.406, 604.550 1090.903 C 605.073 1091.400, 607.750 1092.081, 610.500 1092.417 C 613.250 1092.753, 619.550 1093.549, 624.500 1094.186 C 629.450 1094.823, 642.725 1095.363, 654 1095.386 C 677.191 1095.434, 692.469 1093.907, 708 1089.990 C 710.475 1089.366, 713.967 1088.613, 715.759 1088.317 C 717.552 1088.021, 719.266 1087.379, 719.568 1086.890 C 719.871 1086.400, 721.190 1086, 722.500 1086 C 723.810 1086, 725.160 1085.550, 725.500 1085 C 725.840 1084.450, 726.998 1084, 728.073 1084 C 729.148 1084, 730.809 1083.603, 731.764 1083.117 C 733.538 1082.214, 737.235 1080.668, 741.250 1079.149 C 753.001 1074.704, 785.067 1056.049, 790.837 1050.301 C 791.572 1049.569, 793.810 1047.739, 795.810 1046.235 C 800.518 1042.695, 818.695 1024.518, 822.235 1019.810 C 823.739 1017.810, 825.554 1015.572, 826.268 1014.837 C 826.982 1014.101, 828.654 1011.925, 829.985 1010 C 831.315 1008.075, 832.680 1006.275, 833.018 1006 C 834.294 1004.961, 840 996.097, 840 995.153 C 840 994.611, 840.337 994.017, 840.750 993.833 C 842.027 993.266, 847.289 984.001, 852.867 972.500 C 855.801 966.450, 858.606 960.719, 859.101 959.764 C 859.595 958.809, 860 957.340, 860 956.500 C 860 955.660, 860.397 954.191, 860.883 953.236 C 862.498 950.063, 863.740 946.573, 865.953 939 C 867.159 934.875, 868.562 930.118, 869.072 928.429 C 869.583 926.740, 870 924.242, 870 922.879 C 870 921.516, 870.406 919.972, 870.903 919.450 C 871.400 918.928, 872.060 916.475, 872.371 914 C 872.681 911.525, 873.493 905.225, 874.176 900 C 875.777 887.744, 875.777 849.256, 874.176 837 C 873.493 831.775, 872.681 825.475, 872.371 823 C 872.060 820.525, 871.400 818.072, 870.903 817.550 C 870.406 817.028, 870 814.917, 870 812.859 C 870 810.801, 869.550 808.840, 869 808.500 C 868.450 808.160, 868 806.777, 868 805.427 C 868 804.077, 867.594 802.191, 867.097 801.236 C 866.601 800.281, 865.650 797.475, 864.983 795 C 863.742 790.389, 862.444 786.832, 860.883 783.764 C 860.397 782.809, 860 781.340, 860 780.500 C 860 779.019, 859.584 777.960, 857.156 773.264 C 856.520 772.034, 856 770.346, 856 769.514 C 856 768.681, 855.550 768, 855 768 C 854.450 768, 854 767.100, 854 766 C 854 764.900, 853.550 764, 853 764 C 852.450 764, 852 763.100, 852 762 C 852 760.900, 851.550 760, 851 760 C 850.450 760, 850 759.138, 850 758.083 C 850 757.029, 849.663 756.017, 849.250 755.833 C 848.837 755.650, 847.452 753.475, 846.170 751 C 841.433 741.850, 839.458 738.464, 837.750 736.567 C 836.788 735.498, 836 734.237, 836 733.766 C 836 733.295, 834.875 731.784, 833.500 730.409 C 832.125 729.034, 830.993 727.592, 830.984 727.205 C 830.975 726.817, 829.625 724.977, 827.984 723.114 C 826.343 721.252, 825 719.344, 825 718.874 C 825 717.687, 799.239 692.035, 794.433 688.435 C 792.277 686.821, 789.513 684.522, 788.289 683.328 C 787.065 682.133, 785.150 680.865, 784.032 680.510 C 782.914 680.155, 782 679.476, 782 679 C 782 678.524, 781.155 677.867, 780.122 677.539 C 779.090 677.211, 776.952 675.831, 775.372 674.473 C 773.793 673.114, 771.938 672.002, 771.250 672.001 C 770.563 672.001, 769.996 671.663, 769.992 671.250 C 769.988 670.837, 768.975 670.022, 767.742 669.439 C 766.509 668.855, 762.575 666.885, 759 665.060 C 755.425 663.236, 751.719 661.351, 750.764 660.872 C 749.809 660.392, 748.346 660, 747.514 660 C 746.681 660, 746 659.550, 746 659 C 746 658.450, 745.319 658, 744.486 658 C 743.654 658, 742.191 657.603, 741.236 657.117 C 740.281 656.631, 738.150 655.678, 736.500 655 C 734.850 654.322, 732.719 653.369, 731.764 652.883 C 730.809 652.397, 729.148 652, 728.073 652 C 726.998 652, 725.840 651.550, 725.500 651 C 725.160 650.450, 723.585 650, 722 650 C 720.415 650, 718.871 649.600, 718.568 649.110 C 718.266 648.621, 716.552 647.965, 714.759 647.652 C 712.967 647.339, 709.025 646.597, 706 646.002 C 693.525 643.551, 688.892 642.926, 676.500 642.025 C 669.350 641.506, 661.925 640.929, 660 640.743 C 658.075 640.557, 648.850 640.971, 639.500 641.662 M 1132 641.159 C 1125.675 641.654, 1119.118 642.496, 1117.429 643.029 C 1115.740 643.563, 1112.954 644, 1111.238 644 C 1109.522 644, 1107.840 644.450, 1107.500 645 C 1107.160 645.550, 1105.896 646.007, 1104.691 646.015 C 1102.601 646.029, 1096.621 647.847, 1094.500 649.113 C 1093.950 649.441, 1091.362 650.323, 1088.750 651.073 C 1086.138 651.823, 1084 652.788, 1084 653.218 C 1084 653.648, 1083.100 654, 1082 654 C 1080.900 654, 1080 654.340, 1080 654.756 C 1080 655.172, 1078.537 656.148, 1076.750 656.925 C 1072.313 658.854, 1059.924 667.242, 1054.810 671.779 C 1049.019 676.917, 1046.502 679.457, 1039 687.731 C 1034.062 693.178, 1032.362 694.511, 1031.926 693.277 C 1031.611 692.384, 1031.454 683.294, 1031.579 673.077 C 1031.720 661.526, 1031.418 654.027, 1030.780 653.250 C 1029.980 652.275, 1016.166 652, 967.878 652 L 906 652 906 869 L 906 1086 968.970 1086 L 1031.940 1086 1032.379 963.250 C 1032.657 885.604, 1033.208 837.377, 1033.878 832 C 1034.461 827.325, 1035.220 821.250, 1035.566 818.500 C 1035.911 815.750, 1036.600 813.073, 1037.097 812.550 C 1037.594 812.028, 1038 810.784, 1038 809.786 C 1038 808.789, 1038.397 807.191, 1038.883 806.236 C 1039.369 805.281, 1040.322 803.150, 1041 801.500 C 1044.762 792.349, 1047.324 788.655, 1055.604 780.438 C 1066.515 769.609, 1081.044 764.513, 1100.500 764.689 C 1111.421 764.789, 1118.967 765.701, 1120.450 767.102 C 1120.972 767.596, 1122.260 768, 1123.310 768 C 1126.683 768, 1137.330 774.348, 1142.599 779.500 C 1147.783 784.570, 1152.469 791.047, 1154.897 796.500 C 1155.632 798.150, 1156.631 800.281, 1157.117 801.236 C 1157.603 802.191, 1158 804.077, 1158 805.427 C 1158 806.777, 1158.402 808.131, 1158.894 808.435 C 1159.386 808.739, 1160.075 810.903, 1160.424 813.244 C 1160.774 815.585, 1161.549 820.650, 1162.147 824.500 C 1162.872 829.162, 1163.370 874.005, 1163.640 958.750 L 1164.044 1086 1228.011 1086 L 1291.977 1086 1292.379 960.250 C 1292.600 891.087, 1293.095 831.800, 1293.478 828.500 C 1293.862 825.200, 1294.586 822.073, 1295.088 821.550 C 1295.590 821.028, 1296 818.917, 1296 816.859 C 1296 814.801, 1296.450 812.840, 1297 812.500 C 1297.550 812.160, 1298 811.002, 1298 809.927 C 1298 808.852, 1298.397 807.191, 1298.883 806.236 C 1299.369 805.281, 1300.269 803.263, 1300.883 801.750 C 1304.831 792.029, 1308.602 786.273, 1315.333 779.693 C 1318.038 777.049, 1321.995 774.130, 1324.126 773.207 C 1326.256 772.284, 1328 771.184, 1328 770.764 C 1328 770.344, 1328.681 770, 1329.514 770 C 1330.346 770, 1331.809 769.594, 1332.764 769.097 C 1334.933 767.970, 1340.673 766.469, 1348.631 764.949 C 1360.282 762.723, 1379.277 765.390, 1391.437 770.959 C 1400.620 775.165, 1416 793.351, 1416 800.003 C 1416 801.036, 1416.450 802.160, 1417 802.500 C 1417.550 802.840, 1418 804.190, 1418 805.500 C 1418 806.810, 1418.450 808.160, 1419 808.500 C 1419.550 808.840, 1420 810.696, 1420 812.625 C 1420 814.553, 1420.563 817.114, 1421.250 818.316 C 1422.226 820.021, 1422.610 849.581, 1423 953 L 1423.500 1085.500 1487.771 1085.757 L 1552.041 1086.015 1551.626 948.757 C 1551.351 857.895, 1550.838 808.289, 1550.109 802 C 1549.117 793.447, 1548.499 788.748, 1546.427 774 C 1546.080 771.525, 1545.391 769.073, 1544.898 768.550 C 1544.404 768.028, 1544 766.142, 1544 764.359 C 1544 762.576, 1543.550 760.840, 1543 760.500 C 1542.450 760.160, 1542 758.928, 1542 757.762 C 1542 755.510, 1540.337 749.653, 1538.877 746.764 C 1538.395 745.809, 1538 744.340, 1538 743.500 C 1538 742.660, 1537.588 741.191, 1537.084 740.236 C 1536.580 739.281, 1535.406 736.700, 1534.475 734.500 C 1533.544 732.300, 1532.156 729.193, 1531.391 727.596 C 1530.626 725.999, 1530 724.087, 1530 723.346 C 1530 722.606, 1529.550 722, 1529 722 C 1528.450 722, 1528 721.100, 1528 720 C 1528 718.900, 1527.550 718, 1527 718 C 1526.450 718, 1526 717.100, 1526 716 C 1526 714.900, 1525.580 714, 1525.067 714 C 1524.554 714, 1523.867 713.155, 1523.539 712.122 C 1523.211 711.090, 1521.831 708.952, 1520.473 707.372 C 1519.114 705.793, 1518.002 703.938, 1518.001 703.250 C 1518.001 702.563, 1517.647 702, 1517.216 702 C 1516.784 702, 1515.698 700.763, 1514.802 699.250 C 1510.292 691.638, 1492.335 673.678, 1484.750 669.194 C 1483.237 668.300, 1482 667.216, 1482 666.784 C 1482 666.353, 1481.410 666, 1480.689 666 C 1479.967 666, 1478.504 665.212, 1477.438 664.250 C 1475.543 662.540, 1472.110 660.580, 1463 656.008 C 1460.525 654.766, 1457.719 653.356, 1456.764 652.875 C 1455.809 652.394, 1454.340 652, 1453.500 652 C 1452.660 652, 1451.079 651.550, 1449.986 651 C 1448.894 650.450, 1447.106 649.550, 1446.014 649 C 1444.921 648.450, 1442.923 648, 1441.573 648 C 1440.223 648, 1438.869 647.598, 1438.565 647.106 C 1438.261 646.614, 1436.322 645.962, 1434.256 645.656 C 1432.190 645.351, 1428.025 644.622, 1425 644.035 C 1400.846 639.351, 1371.629 640.096, 1348 645.999 C 1345.525 646.617, 1342.257 647.372, 1340.738 647.677 C 1339.219 647.981, 1337.729 648.629, 1337.429 649.115 C 1337.128 649.602, 1336.002 650, 1334.927 650 C 1333.852 650, 1332.191 650.397, 1331.236 650.883 C 1330.281 651.369, 1328.375 652.214, 1327 652.761 C 1319.562 655.719, 1309.475 661.106, 1301.500 666.380 C 1296.550 669.653, 1292.275 672.606, 1292 672.942 C 1291.725 673.278, 1288.576 676.016, 1285.001 679.026 C 1277.721 685.158, 1275.930 686.965, 1272.137 692 C 1270.686 693.925, 1268.487 696.620, 1267.250 697.990 C 1266.013 699.359, 1265 700.790, 1265 701.168 C 1265 702.183, 1262.006 705, 1260.929 705 C 1260.418 705, 1260 704.325, 1260 703.500 C 1260 702.675, 1259.550 702, 1259 702 C 1258.450 702, 1258 701.410, 1258 700.689 C 1258 699.967, 1257.100 698.411, 1256 697.230 C 1254.900 696.050, 1253.999 694.727, 1253.999 694.292 C 1253.998 693.856, 1252.873 692.193, 1251.499 690.594 C 1250.124 688.996, 1249 687.374, 1249 686.990 C 1249 685.843, 1233.783 670.628, 1230 667.993 C 1228.075 666.652, 1225.628 664.755, 1224.561 663.777 C 1223.495 662.800, 1222.070 662, 1221.395 662 C 1220.719 662, 1220.017 661.663, 1219.833 661.250 C 1219.416 660.311, 1214.090 657.064, 1211.750 656.322 C 1210.787 656.016, 1210 655.369, 1210 654.883 C 1210 654.398, 1209.410 654, 1208.688 654 C 1207.966 654, 1205.513 653.100, 1203.236 652 C 1200.959 650.900, 1198.619 650, 1198.035 650 C 1197.451 650, 1196.191 649.594, 1195.236 649.097 C 1193.615 648.255, 1190.461 647.348, 1181.250 645.075 C 1173.495 643.161, 1166.238 642.040, 1158 641.482 C 1153.325 641.166, 1148.150 640.761, 1146.500 640.583 C 1144.850 640.405, 1138.325 640.664, 1132 641.159 M 272.919 655.597 C 272.381 656.245, 271.887 742.888, 271.710 867.597 C 271.545 983.594, 271.072 1079.850, 270.658 1081.500 C 266.699 1097.281, 263.407 1104.529, 257.500 1110.474 C 252.280 1115.728, 246.822 1119.959, 245.236 1119.982 C 244.541 1119.992, 243.191 1120.397, 242.236 1120.883 C 234.479 1124.829, 231.734 1125.195, 206.250 1125.682 L 184 1126.106 184 1183.931 C 184 1228.998, 184.276 1241.973, 185.250 1242.741 C 189.898 1246.407, 248.152 1246.264, 266.500 1242.541 C 268.150 1242.207, 271.975 1241.450, 275 1240.859 C 278.025 1240.269, 281.625 1239.436, 283 1239.009 C 284.375 1238.582, 287.525 1237.678, 290 1237.002 C 292.475 1236.326, 295.512 1235.373, 296.750 1234.886 C 297.988 1234.399, 300.012 1233.604, 301.250 1233.120 C 306.773 1230.959, 321.881 1223.339, 325.680 1220.797 C 327.979 1219.258, 330.342 1218, 330.930 1218 C 331.519 1218, 332 1217.647, 332 1217.216 C 332 1216.784, 333.462 1215.580, 335.250 1214.540 C 339.467 1212.086, 360.086 1191.467, 362.540 1187.250 C 363.580 1185.463, 364.730 1184, 365.094 1184 C 365.459 1184, 366.317 1182.650, 367 1181 C 367.683 1179.350, 368.608 1178, 369.054 1178 C 369.500 1178, 370.150 1177.103, 370.498 1176.006 C 370.846 1174.909, 371.664 1173.429, 372.316 1172.717 C 374.215 1170.641, 376 1167.151, 376 1165.514 C 376 1164.681, 376.450 1164, 377 1164 C 377.550 1164, 378 1163.319, 378 1162.486 C 378 1161.654, 378.397 1160.191, 378.883 1159.236 C 379.369 1158.281, 380.269 1156.263, 380.883 1154.750 C 381.497 1153.237, 382.503 1150.763, 383.117 1149.250 C 383.731 1147.737, 384.631 1145.719, 385.117 1144.764 C 385.603 1143.809, 386 1142.148, 386 1141.073 C 386 1139.998, 386.450 1138.840, 387 1138.500 C 387.550 1138.160, 388 1136.360, 388 1134.500 C 388 1132.640, 388.402 1130.869, 388.894 1130.565 C 389.386 1130.261, 390.048 1128.322, 390.365 1126.256 C 390.682 1124.190, 391.427 1119.575, 392.019 1116 C 395.097 1097.436, 395.228 1088.645, 395.622 874.223 C 395.943 699.199, 395.772 655.854, 394.761 655.484 C 394.067 655.230, 366.574 654.905, 333.664 654.761 C 291.177 654.576, 273.565 654.818, 272.919 655.597 M 636.500 764.977 C 635.400 765.463, 633.064 765.891, 631.309 765.930 C 629.554 765.968, 627.840 766.450, 627.500 767 C 627.160 767.550, 625.987 768, 624.893 768 C 623.799 768, 621.041 768.900, 618.764 770 C 616.487 771.100, 614.034 772, 613.312 772 C 612.590 772, 612 772.450, 612 773 C 612 773.550, 611.100 774, 610 774 C 608.900 774, 608 774.398, 608 774.883 C 608 775.369, 607.212 776.016, 606.250 776.322 C 601.749 777.749, 595.733 782.419, 586.051 792 C 576.876 801.080, 574.649 803.882, 570.836 811.145 C 569.001 814.640, 567.163 817.650, 566.750 817.833 C 566.337 818.017, 566 819.029, 566 820.083 C 566 821.138, 565.550 822, 565 822 C 564.450 822, 564 822.873, 564 823.941 C 564 825.009, 563.550 826.160, 563 826.500 C 562.450 826.840, 562 828.190, 562 829.500 C 562 830.810, 561.602 832.128, 561.115 832.429 C 560.629 832.729, 559.974 834.219, 559.660 835.738 C 559.346 837.257, 558.542 840.750, 557.874 843.500 C 556.325 849.866, 556.234 888.763, 557.753 895 C 558.761 899.138, 559.643 902.348, 561.601 909 C 562.448 911.879, 572.099 931.251, 573.060 932 C 573.412 932.275, 574.245 933.533, 574.910 934.795 C 577.648 939.994, 595.784 958, 598.281 958 C 598.723 958, 599.992 958.847, 601.103 959.882 C 602.936 961.589, 613.153 966.939, 618.750 969.122 C 619.987 969.605, 622.013 970.416, 623.250 970.925 C 625.589 971.886, 627.458 972.326, 637.500 974.278 C 647.620 976.245, 677.123 975.228, 678.586 972.861 C 678.879 972.387, 680.415 972, 682 972 C 683.585 972, 685.160 971.550, 685.500 971 C 685.840 970.450, 686.998 970, 688.073 970 C 689.148 970, 690.809 969.599, 691.764 969.109 C 692.719 968.620, 695.750 967.157, 698.500 965.859 C 701.250 964.562, 703.650 963.163, 703.833 962.750 C 704.017 962.337, 704.719 962, 705.395 962 C 706.070 962, 707.495 961.200, 708.561 960.223 C 709.628 959.245, 712.075 957.356, 714 956.024 C 718.207 953.112, 731.999 939.582, 732.002 938.363 C 732.004 937.888, 733.353 935.925, 735 934 C 736.647 932.075, 737.996 929.975, 737.998 929.333 C 737.999 928.692, 738.337 928.017, 738.750 927.833 C 739.475 927.511, 743.219 920.113, 745.243 915 C 745.788 913.625, 746.631 911.719, 747.117 910.764 C 747.603 909.809, 748 908.148, 748 907.073 C 748 905.998, 748.450 904.840, 749 904.500 C 749.550 904.160, 750 902.585, 750 901 C 750 899.415, 750.450 897.840, 751 897.500 C 751.550 897.160, 752 894.749, 752 892.141 C 752 889.533, 752.471 886.929, 753.047 886.353 C 754.378 885.022, 753.679 853.718, 752.146 846 C 751.545 842.975, 750.767 838.808, 750.416 836.741 C 750.066 834.673, 749.379 832.734, 748.890 832.432 C 748.400 832.129, 748 830.810, 748 829.500 C 748 828.190, 747.550 826.840, 747 826.500 C 746.450 826.160, 746 825.009, 746 823.941 C 746 822.873, 745.550 822, 745 822 C 744.450 822, 744 821.368, 744 820.595 C 744 818.763, 739.992 811.047, 737.750 808.562 C 736.788 807.496, 736 806.033, 736 805.311 C 736 804.590, 735.647 804, 735.216 804 C 734.784 804, 733.633 802.649, 732.657 800.997 C 728.997 794.800, 710.430 778, 707.242 778 C 706.651 778, 706.017 777.663, 705.833 777.250 C 705.501 776.502, 700.743 774.085, 691.761 770.102 C 689.154 768.946, 685.918 768, 684.570 768 C 683.221 768, 681.869 767.598, 681.565 767.106 C 681.261 766.614, 679.097 765.892, 676.756 765.501 C 670.150 764.398, 638.740 763.990, 636.500 764.977"/>
  </g>
  <g id="exclamation" fill="#0E9C47">
    <path id="excl-bar" transform="translate(0 29.10) scale(1 0.9404)" d="M 1634.395 547.245 C 1634.897 602.904, 1635.648 658.728, 1637.990 814.500 C 1638.527 850.250, 1639.422 910.550, 1639.978 948.500 C 1640.535 986.450, 1641.448 1045.625, 1642.008 1080 C 1642.569 1114.375, 1643.412 1170.175, 1643.882 1204 C 1644.352 1237.825, 1644.796 1265.612, 1644.868 1265.750 C 1644.941 1265.888, 1679.365 1266, 1721.367 1266 L 1797.734 1266 1798.403 1247.250 C 1798.771 1236.938, 1799.512 1218.150, 1800.050 1205.500 C 1800.978 1183.652, 1801.749 1163.962, 1803.977 1105.250 C 1804.514 1091.088, 1805.432 1069.150, 1806.017 1056.500 C 1806.602 1043.850, 1807.504 1022.475, 1808.022 1009 C 1808.540 995.525, 1809.430 973.700, 1809.999 960.500 C 1810.568 947.300, 1811.463 925.025, 1811.988 911 C 1813.105 881.177, 1814.631 843.060, 1816.032 810 C 1817.196 782.520, 1818.590 746.562, 1819.985 708 C 1820.532 692.875, 1821.439 668.800, 1822.001 654.500 C 1822.563 640.200, 1823.441 617.250, 1823.951 603.500 C 1824.462 589.750, 1825.439 564.775, 1826.121 548 C 1826.804 531.225, 1827.394 510.975, 1827.431 503 L 1827.500 488.500 1730.680 488.245 L 1633.859 487.990 1634.395 547.245"/>
    <path id="excl-dot" transform="translate(0 -46.40)" d="M 1708.500 1310.972 C 1707.400 1311.460, 1704.614 1311.891, 1702.309 1311.930 C 1700.004 1311.968, 1697.840 1312.450, 1697.500 1313 C 1697.160 1313.550, 1696.002 1314, 1694.927 1314 C 1693.852 1314, 1692.191 1314.397, 1691.236 1314.883 C 1690.281 1315.369, 1688.375 1316.214, 1687 1316.761 C 1682.987 1318.357, 1670.547 1324.407, 1670 1325.028 C 1669.725 1325.341, 1667.925 1326.679, 1666 1328.002 C 1661.535 1331.070, 1649.187 1343.430, 1646.021 1348 C 1644.687 1349.925, 1643.350 1351.725, 1643.048 1352 C 1641.163 1353.719, 1632 1372.031, 1632 1374.079 C 1632 1375.071, 1631.550 1376.160, 1631 1376.500 C 1630.450 1376.840, 1630 1378.415, 1630 1380 C 1630 1381.585, 1629.611 1383.122, 1629.136 1383.416 C 1626.097 1385.294, 1625.959 1421.759, 1628.957 1431 C 1629.403 1432.375, 1630.348 1435.525, 1631.058 1438 C 1631.767 1440.475, 1632.720 1442.928, 1633.174 1443.450 C 1633.628 1443.973, 1634 1445.210, 1634 1446.200 C 1634 1447.190, 1634.450 1448, 1635 1448 C 1635.550 1448, 1636 1448.632, 1636 1449.405 C 1636 1451.237, 1640.008 1458.953, 1642.250 1461.438 C 1643.213 1462.504, 1644 1463.727, 1644 1464.155 C 1644 1465.609, 1657.707 1480.299, 1662.617 1484.107 C 1663.757 1484.991, 1667.347 1487.479, 1670.595 1489.634 C 1676.226 1493.372, 1678.538 1494.594, 1684.750 1497.117 C 1686.263 1497.731, 1688.281 1498.631, 1689.236 1499.117 C 1690.191 1499.603, 1691.852 1500, 1692.927 1500 C 1694.002 1500, 1695.160 1500.450, 1695.500 1501 C 1695.840 1501.550, 1697.246 1502, 1698.625 1502 C 1700.003 1502, 1702 1502.465, 1703.061 1503.033 C 1705.462 1504.318, 1736.906 1504.398, 1740.152 1503.127 C 1741.444 1502.622, 1744.525 1501.660, 1747 1500.990 C 1751.369 1499.808, 1752.985 1499.241, 1758.750 1496.868 C 1772.101 1491.375, 1787.084 1479.789, 1795.600 1468.373 C 1797.189 1466.243, 1798.716 1464.275, 1798.994 1464 C 1799.922 1463.083, 1803.040 1457.546, 1804.766 1453.750 C 1805.704 1451.688, 1806.816 1450, 1807.236 1450 C 1807.656 1450, 1808 1449.319, 1808 1448.486 C 1808 1447.654, 1808.450 1446.079, 1809 1444.986 C 1809.550 1443.894, 1810.450 1442.106, 1811 1441.014 C 1811.550 1439.921, 1812 1437.923, 1812 1436.573 C 1812 1435.223, 1812.402 1433.869, 1812.894 1433.565 C 1813.386 1433.261, 1814.118 1431.097, 1814.520 1428.756 C 1815.482 1423.153, 1815.571 1391.342, 1814.636 1387.500 C 1813.051 1380.994, 1811.726 1376.387, 1810.752 1374 C 1810.191 1372.625, 1809.290 1370.375, 1808.749 1369 C 1808.208 1367.625, 1807.130 1365.375, 1806.353 1364 C 1805.576 1362.625, 1804.230 1359.813, 1803.362 1357.750 C 1802.493 1355.688, 1801.382 1354, 1800.891 1354 C 1800.401 1354, 1799.994 1353.438, 1799.987 1352.750 C 1799.950 1348.984, 1777.034 1326.073, 1773.250 1326.018 C 1772.563 1326.008, 1771.996 1325.662, 1771.992 1325.250 C 1771.988 1324.838, 1770.975 1324.005, 1769.742 1323.399 C 1768.509 1322.794, 1765.475 1321.267, 1763 1320.007 C 1760.525 1318.747, 1757.487 1317.330, 1756.250 1316.858 C 1755.013 1316.386, 1752.987 1315.601, 1751.750 1315.114 C 1748.893 1313.989, 1742.522 1312.276, 1738 1311.417 C 1732.307 1310.336, 1710.668 1310.009, 1708.500 1310.972"/>
  </g>
  <g id="contest-pill">
    <path id="pill" fill="#F3F5F7" d="M 537 1150.999 C 536.175 1151.533, 532.939 1151.976, 529.809 1151.985 C 526.679 1151.993, 523.840 1152.450, 523.500 1153 C 523.160 1153.550, 521.135 1154, 519 1154 C 516.865 1154, 514.840 1154.450, 514.500 1155 C 514.160 1155.550, 512.585 1156, 511 1156 C 509.415 1156, 507.840 1156.450, 507.500 1157 C 507.160 1157.550, 505.810 1158, 504.500 1158 C 503.190 1158, 501.840 1158.450, 501.500 1159 C 501.160 1159.550, 499.784 1160, 498.441 1160 C 497.098 1160, 496 1160.450, 496 1161 C 496 1161.550, 495.100 1162, 494 1162 C 492.900 1162, 492 1162.450, 492 1163 C 492 1163.550, 491.368 1164, 490.595 1164 C 488.929 1164, 480.647 1168.170, 480.167 1169.250 C 479.983 1169.662, 478.971 1170, 477.917 1170 C 476.863 1170, 476 1170.450, 476 1171 C 476 1171.550, 475.199 1172, 474.221 1172 C 473.242 1172, 471.793 1172.900, 471 1174 C 470.207 1175.100, 468.938 1176, 468.180 1176 C 467.423 1176, 465.541 1177.350, 464 1179 C 462.459 1180.650, 460.698 1182, 460.088 1182 C 458.795 1182, 436 1204.561, 436 1205.841 C 436 1206.315, 434.762 1208.015, 433.250 1209.619 C 431.738 1211.222, 429.861 1213.764, 429.081 1215.267 C 428.301 1216.770, 427.288 1218, 426.831 1218 C 426.374 1218, 426 1218.801, 426 1219.779 C 426 1220.758, 425.100 1222.207, 424 1223 C 422.900 1223.793, 422 1225.242, 422 1226.221 C 422 1227.199, 421.550 1228, 421 1228 C 420.450 1228, 420 1228.900, 420 1230 C 420 1231.100, 419.550 1232, 419 1232 C 418.450 1232, 418 1232.900, 418 1234 C 418 1235.100, 417.550 1236, 417 1236 C 416.450 1236, 416 1236.900, 416 1238 C 416 1239.100, 415.550 1240, 415 1240 C 414.450 1240, 414 1241.098, 414 1242.441 C 414 1243.784, 413.550 1245.160, 413 1245.500 C 412.450 1245.840, 412 1246.991, 412 1248.059 C 412 1249.127, 411.550 1250, 411 1250 C 410.450 1250, 410 1251.350, 410 1253 C 410 1254.650, 409.550 1256, 409 1256 C 408.450 1256, 408 1257.548, 408 1259.441 C 408 1261.334, 407.550 1263.160, 407 1263.500 C 406.450 1263.840, 406 1265.801, 406 1267.859 C 406 1269.917, 405.586 1272.027, 405.081 1272.550 C 403.069 1274.630, 401.113 1318.513, 402.951 1320.351 C 403.528 1320.928, 404 1324.208, 404 1327.641 C 404 1331.074, 404.450 1334.160, 405 1334.500 C 405.550 1334.840, 406 1337.116, 406 1339.559 C 406 1342.002, 406.450 1344, 407 1344 C 407.550 1344, 408 1345.323, 408 1346.941 C 408 1348.559, 408.450 1350.160, 409 1350.500 C 409.550 1350.840, 410 1352.216, 410 1353.559 C 410 1354.902, 410.450 1356, 411 1356 C 411.550 1356, 412 1357.350, 412 1359 C 412 1360.650, 412.450 1362, 413 1362 C 413.550 1362, 414 1362.681, 414 1363.514 C 414 1364.346, 414.394 1365.809, 414.875 1366.764 C 415.356 1367.719, 416.773 1370.525, 418.024 1373 C 419.275 1375.475, 420.794 1378.509, 421.399 1379.742 C 422.005 1380.975, 422.837 1381.988, 423.250 1381.992 C 423.663 1381.996, 424 1382.900, 424 1384 C 424 1385.100, 424.450 1386, 425 1386 C 425.550 1386, 426.001 1386.563, 426.001 1387.250 C 426.002 1387.938, 427.127 1389.807, 428.501 1391.406 C 429.876 1393.004, 431 1394.676, 431 1395.122 C 431 1395.568, 432.575 1397.508, 434.500 1399.433 C 436.425 1401.358, 438 1403.424, 438 1404.023 C 438 1405.390, 456.800 1424, 458.182 1424 C 458.740 1424, 460.459 1425.350, 462 1427 C 463.541 1428.650, 465.423 1430, 466.180 1430 C 466.938 1430, 468.207 1430.900, 469 1432 C 469.793 1433.100, 471.036 1434, 471.763 1434 C 472.489 1434, 474.050 1434.900, 475.230 1436 C 476.411 1437.100, 477.967 1438, 478.689 1438 C 479.410 1438, 480 1438.450, 480 1439 C 480 1439.550, 480.900 1440, 482 1440 C 483.100 1440, 484 1440.450, 484 1441 C 484 1441.550, 484.900 1442, 486 1442 C 487.100 1442, 488 1442.450, 488 1443 C 488 1443.550, 488.900 1444, 490 1444 C 491.100 1444, 492 1444.450, 492 1445 C 492 1445.550, 493.098 1446, 494.441 1446 C 495.784 1446, 497.160 1446.450, 497.500 1447 C 497.840 1447.550, 498.991 1448, 500.059 1448 C 501.127 1448, 502 1448.450, 502 1449 C 502 1449.550, 503.350 1450, 505 1450 C 506.650 1450, 508 1450.450, 508 1451 C 508 1451.550, 509.323 1452, 510.941 1452 C 512.559 1452, 514.160 1452.450, 514.500 1453 C 514.840 1453.550, 516.865 1454, 519 1454 C 521.135 1454, 523.160 1454.450, 523.500 1455 C 523.840 1455.550, 526.990 1456, 530.500 1456 C 534.010 1456, 537.160 1456.450, 537.500 1457 C 537.911 1457.664, 693.491 1458, 1001 1458 C 1308.509 1458, 1464.089 1457.664, 1464.500 1457 C 1464.840 1456.450, 1467.990 1456, 1471.500 1456 C 1475.010 1456, 1478.160 1455.550, 1478.500 1455 C 1478.840 1454.450, 1480.865 1454, 1483 1454 C 1485.135 1454, 1487.160 1453.550, 1487.500 1453 C 1487.840 1452.450, 1489.441 1452, 1491.059 1452 C 1492.677 1452, 1494 1451.550, 1494 1451 C 1494 1450.450, 1495.350 1450, 1497 1450 C 1498.650 1450, 1500 1449.550, 1500 1449 C 1500 1448.450, 1501.350 1448, 1503 1448 C 1504.650 1448, 1506 1447.550, 1506 1447 C 1506 1446.450, 1506.900 1446, 1508 1446 C 1509.100 1446, 1510 1445.550, 1510 1445 C 1510 1444.450, 1510.900 1444, 1512 1444 C 1513.100 1444, 1514 1443.550, 1514 1443 C 1514 1442.450, 1514.900 1442, 1516 1442 C 1517.100 1442, 1518 1441.550, 1518 1441 C 1518 1440.450, 1518.900 1440, 1520 1440 C 1521.100 1440, 1522 1439.550, 1522 1439 C 1522 1438.450, 1522.801 1438, 1523.779 1438 C 1524.758 1438, 1526.207 1437.100, 1527 1436 C 1527.793 1434.900, 1529.143 1434, 1530 1434 C 1530.857 1434, 1532.207 1433.100, 1533 1432 C 1533.793 1430.900, 1535.032 1430, 1535.754 1430 C 1536.476 1430, 1538.642 1428.425, 1540.567 1426.500 C 1542.492 1424.575, 1544.480 1423, 1544.984 1423 C 1546.268 1423, 1559.029 1410.238, 1561.983 1406 C 1563.325 1404.075, 1565.678 1401.307, 1567.211 1399.849 C 1568.745 1398.391, 1570 1396.699, 1570 1396.090 C 1570 1395.480, 1571.350 1393.569, 1573 1391.843 C 1574.650 1390.116, 1576 1388.095, 1576 1387.352 C 1576 1386.608, 1576.450 1386, 1577 1386 C 1577.550 1386, 1578 1385.138, 1578 1384.083 C 1578 1383.029, 1578.337 1382.017, 1578.750 1381.833 C 1579.809 1381.363, 1586 1369.003, 1586 1367.360 C 1586 1366.612, 1586.450 1366, 1587 1366 C 1587.550 1366, 1588 1365.100, 1588 1364 C 1588 1362.900, 1588.450 1362, 1589 1362 C 1589.550 1362, 1590 1360.650, 1590 1359 C 1590 1357.350, 1590.450 1356, 1591 1356 C 1591.550 1356, 1592 1354.650, 1592 1353 C 1592 1351.350, 1592.450 1350, 1593 1350 C 1593.550 1350, 1594 1348.452, 1594 1346.559 C 1594 1344.666, 1594.450 1342.840, 1595 1342.500 C 1595.550 1342.160, 1596 1340.199, 1596 1338.141 C 1596 1336.083, 1596.415 1333.973, 1596.922 1333.450 C 1599.904 1330.378, 1599.901 1276.632, 1596.919 1273.550 C 1596.414 1273.027, 1596 1270.665, 1596 1268.300 C 1596 1265.935, 1595.550 1264, 1595 1264 C 1594.450 1264, 1594 1262.452, 1594 1260.559 C 1594 1258.666, 1593.550 1256.840, 1593 1256.500 C 1592.450 1256.160, 1592 1254.559, 1592 1252.941 C 1592 1251.323, 1591.550 1250, 1591 1250 C 1590.450 1250, 1590 1249.100, 1590 1248 C 1590 1246.900, 1589.550 1246, 1589 1246 C 1588.450 1246, 1588 1244.650, 1588 1243 C 1588 1241.350, 1587.550 1240, 1587 1240 C 1586.450 1240, 1586 1239.100, 1586 1238 C 1586 1236.900, 1585.550 1236, 1585 1236 C 1584.450 1236, 1584 1235.100, 1584 1234 C 1584 1232.900, 1583.550 1232, 1583 1232 C 1582.450 1232, 1582 1231.100, 1582 1230 C 1582 1228.900, 1581.550 1228, 1581 1228 C 1580.450 1228, 1580 1227.410, 1580 1226.689 C 1580 1225.967, 1579.100 1224.411, 1578 1223.230 C 1576.900 1222.050, 1576 1220.390, 1576 1219.542 C 1576 1218.694, 1575.626 1218, 1575.169 1218 C 1574.712 1218, 1573.699 1216.763, 1572.919 1215.250 C 1572.139 1213.737, 1570.487 1211.467, 1569.250 1210.205 C 1568.013 1208.942, 1567 1207.477, 1567 1206.948 C 1567 1205.525, 1541.119 1180, 1539.677 1180 C 1538.997 1180, 1537.793 1179.100, 1537 1178 C 1536.207 1176.900, 1534.964 1176, 1534.237 1176 C 1533.511 1176, 1531.950 1175.100, 1530.770 1174 C 1529.589 1172.900, 1528.033 1172, 1527.311 1172 C 1526.590 1172, 1526 1171.550, 1526 1171 C 1526 1170.450, 1525.138 1170, 1524.083 1170 C 1523.029 1170, 1522.017 1169.662, 1521.833 1169.250 C 1521.363 1168.191, 1509.003 1162, 1507.360 1162 C 1506.612 1162, 1506 1161.550, 1506 1161 C 1506 1160.450, 1505.127 1160, 1504.059 1160 C 1502.991 1160, 1501.840 1159.550, 1501.500 1159 C 1501.160 1158.450, 1499.585 1158, 1498 1158 C 1496.415 1158, 1494.840 1157.550, 1494.500 1157 C 1494.160 1156.450, 1492.559 1156, 1490.941 1156 C 1489.323 1156, 1488 1155.550, 1488 1155 C 1488 1154.450, 1486.290 1154, 1484.200 1154 C 1482.110 1154, 1479.972 1153.588, 1479.450 1153.084 C 1478.927 1152.581, 1475.575 1151.855, 1472 1151.473 C 1461.490 1150.348, 538.729 1149.880, 537 1150.999"/>
    <path id="contest-text" fill="#222A36" fill-rule="evenodd" d="M 1452 1211 C 1452 1211.550, 1450.677 1212, 1449.059 1212 C 1447.441 1212, 1445.840 1212.450, 1445.500 1213 C 1445.160 1213.550, 1443.585 1214, 1442 1214 C 1440.415 1214, 1438.840 1214.450, 1438.500 1215 C 1438.160 1215.550, 1436.585 1216, 1435 1216 C 1433.415 1216, 1431.840 1216.450, 1431.500 1217 C 1431.160 1217.550, 1429.585 1218, 1428 1218 C 1426.415 1218, 1424.840 1218.450, 1424.500 1219 C 1424.160 1219.550, 1422.614 1220, 1421.063 1220 C 1419.513 1220, 1417.753 1220.592, 1417.153 1221.316 C 1416.517 1222.082, 1415.943 1228.249, 1415.780 1236.066 L 1415.500 1249.500 1403.750 1249.782 L 1392 1250.063 1392 1268 L 1392 1285.937 1403.750 1286.218 L 1415.500 1286.500 1415.762 1323.250 C 1415.929 1346.601, 1416.385 1360, 1417.012 1360 C 1417.556 1360, 1418 1361.800, 1418 1364 C 1418 1366.200, 1418.450 1368, 1419 1368 C 1419.550 1368, 1420 1368.900, 1420 1370 C 1420 1371.100, 1420.450 1372, 1421 1372 C 1421.550 1372, 1422 1372.704, 1422 1373.565 C 1422 1377.496, 1438.004 1390, 1443.035 1390 C 1444.051 1390, 1445.123 1390.390, 1445.418 1390.867 C 1445.976 1391.771, 1458.572 1393.218, 1465.500 1393.175 C 1467.700 1393.161, 1473.100 1392.779, 1477.500 1392.325 L 1485.500 1391.500 1485.500 1374 L 1485.500 1356.500 1482.500 1356.757 C 1480.850 1356.898, 1476.879 1357.292, 1473.676 1357.632 C 1469.902 1358.033, 1467.455 1357.855, 1466.726 1357.126 C 1466.107 1356.507, 1464.545 1356, 1463.255 1356 C 1460.869 1356, 1457.508 1353.149, 1455.250 1349.208 C 1454.325 1347.594, 1454 1339.094, 1454 1316.514 L 1454 1286 1470 1286 L 1486 1286 1486 1268 L 1486 1250 1470 1250 L 1454 1250 1454 1230 C 1454 1217.333, 1453.633 1210, 1453 1210 C 1452.450 1210, 1452 1210.450, 1452 1211 M 1042.500 1213 C 1042.160 1213.550, 1040.559 1214, 1038.941 1214 C 1037.323 1214, 1036 1214.450, 1036 1215 C 1036 1215.550, 1034.452 1216, 1032.559 1216 C 1030.666 1216, 1028.840 1216.450, 1028.500 1217 C 1028.160 1217.550, 1026.559 1218, 1024.941 1218 C 1023.323 1218, 1022 1218.450, 1022 1219 C 1022 1219.550, 1020.538 1220.014, 1018.750 1220.032 C 1012.445 1220.093, 1012 1221.169, 1012 1236.329 L 1012 1249.937 1000.250 1250.218 L 988.500 1250.500 988.733 1267.318 C 988.861 1276.568, 989.225 1284.555, 989.542 1285.068 C 989.859 1285.581, 995.024 1286, 1001.020 1286 L 1011.922 1286 1012.372 1318.750 C 1012.825 1351.781, 1013.429 1361.710, 1015.092 1363.450 C 1015.591 1363.973, 1016 1365.660, 1016 1367.200 C 1016 1368.740, 1016.450 1370, 1017 1370 C 1017.550 1370, 1018 1370.900, 1018 1372 C 1018 1373.100, 1018.374 1374, 1018.831 1374 C 1019.288 1374, 1020.301 1375.237, 1021.081 1376.750 C 1021.861 1378.263, 1023.400 1380.400, 1024.500 1381.500 C 1025.600 1382.600, 1027.737 1384.139, 1029.250 1384.919 C 1030.763 1385.699, 1032 1386.712, 1032 1387.169 C 1032 1387.626, 1032.873 1388, 1033.941 1388 C 1035.009 1388, 1036.160 1388.450, 1036.500 1389 C 1036.840 1389.550, 1038.415 1390, 1040 1390 C 1041.585 1390, 1043.119 1390.384, 1043.409 1390.853 C 1043.881 1391.617, 1056.391 1393.221, 1061.500 1393.174 C 1069.309 1393.102, 1081.665 1391.478, 1082.763 1390.380 C 1084.777 1388.365, 1084.375 1359.232, 1082.304 1357.161 C 1081.101 1355.958, 1080.407 1355.889, 1078.909 1356.824 C 1076.619 1358.255, 1064.362 1358.395, 1063.500 1357 C 1063.160 1356.450, 1062.098 1356, 1061.140 1356 C 1058.102 1356, 1054.016 1353.565, 1054.008 1351.750 C 1054.004 1350.787, 1053.550 1350, 1053 1350 C 1052.354 1350, 1052 1338.675, 1052 1318.025 L 1052 1286.051 1067.750 1285.775 L 1083.500 1285.500 1083.500 1268 L 1083.500 1250.500 1067.750 1250.225 L 1052 1249.949 1052 1230.975 L 1052 1212 1047.559 1212 C 1045.116 1212, 1042.840 1212.450, 1042.500 1213 M 560 1245 C 560 1245.550, 558.644 1246, 556.986 1246 C 555.329 1246, 553.191 1246.397, 552.236 1246.883 C 551.281 1247.369, 549.150 1248.322, 547.500 1249.001 C 545.850 1249.679, 543.375 1250.885, 542 1251.679 C 540.625 1252.473, 538.712 1253.373, 537.750 1253.678 C 536.788 1253.984, 536 1254.631, 536 1255.117 C 536 1255.602, 535.371 1256, 534.602 1256 C 533.084 1256, 518 1270.304, 518 1271.743 C 518 1272.227, 517.212 1273.518, 516.250 1274.612 C 513.912 1277.270, 511.288 1281.936, 509 1287.500 C 508.322 1289.150, 507.369 1291.281, 506.883 1292.236 C 506.397 1293.191, 506 1295.077, 506 1296.427 C 506 1297.777, 505.550 1299.160, 505 1299.500 C 504.450 1299.840, 504 1302.090, 504 1304.500 C 504 1306.910, 503.550 1309.160, 503 1309.500 C 502.437 1309.848, 502 1314.657, 502 1320.500 C 502 1326.343, 502.437 1331.152, 503 1331.500 C 503.550 1331.840, 504 1334.090, 504 1336.500 C 504 1338.910, 504.450 1341.160, 505 1341.500 C 505.550 1341.840, 506 1343.190, 506 1344.500 C 506 1345.810, 506.450 1347.160, 507 1347.500 C 507.550 1347.840, 508 1348.991, 508 1350.059 C 508 1351.127, 508.450 1352, 509 1352 C 509.550 1352, 510 1352.900, 510 1354 C 510 1355.100, 510.450 1356, 511 1356 C 511.550 1356, 512 1356.900, 512 1358 C 512 1359.100, 512.450 1360, 513 1360 C 513.550 1360, 514 1360.587, 514 1361.305 C 514 1364.068, 531.586 1382, 534.296 1382 C 534.990 1382, 536.207 1382.900, 537 1384 C 537.793 1385.100, 539.242 1386, 540.221 1386 C 541.199 1386, 542 1386.450, 542 1387 C 542 1387.550, 542.900 1388, 544 1388 C 545.100 1388, 546 1388.450, 546 1389 C 546 1389.550, 547.098 1390, 548.441 1390 C 549.784 1390, 551.160 1390.450, 551.500 1391 C 551.840 1391.550, 553.441 1392, 555.059 1392 C 556.677 1392, 558 1392.398, 558 1392.884 C 558 1395.662, 593.502 1395.673, 596.450 1392.895 C 596.972 1392.403, 598.633 1392, 600.141 1392 C 601.649 1392, 603.160 1391.550, 603.500 1391 C 603.840 1390.450, 604.991 1390, 606.059 1390 C 607.127 1390, 608 1389.550, 608 1389 C 608 1388.450, 608.900 1388, 610 1388 C 611.100 1388, 612 1387.550, 612 1387 C 612 1386.450, 612.900 1386, 614 1386 C 615.100 1386, 616 1385.550, 616 1385 C 616 1384.450, 616.649 1384, 617.443 1384 C 619.287 1384, 638 1365.615, 638 1363.802 C 638 1363.054, 638.900 1361.793, 640 1361 C 642.362 1359.297, 642.665 1356, 640.458 1356 C 639.610 1356, 637.950 1355.100, 636.770 1354 C 635.589 1352.900, 634.033 1352, 633.311 1352 C 632.590 1352, 632 1351.550, 632 1351 C 632 1350.450, 631.100 1350, 630 1350 C 628.900 1350, 628 1349.550, 628 1349 C 628 1348.450, 627.138 1348, 626.083 1348 C 625.029 1348, 624.017 1347.662, 623.833 1347.250 C 623.416 1346.311, 618.090 1343.064, 615.750 1342.322 C 614.788 1342.016, 614 1341.369, 614 1340.883 C 614 1340.398, 613.138 1340, 612.083 1340 C 611.029 1340, 609.981 1339.442, 609.753 1338.759 C 609.273 1337.318, 606 1340.105, 606 1341.955 C 606 1343.623, 597.266 1352, 595.526 1352 C 594.687 1352, 594 1352.450, 594 1353 C 594 1353.550, 593.138 1354, 592.083 1354 C 591.029 1354, 590.005 1354.484, 589.808 1355.075 C 588.870 1357.890, 560 1355.669, 560 1352.782 C 560 1352.352, 559.397 1352, 558.659 1352 C 556.720 1352, 548 1343.491, 548 1341.599 C 548 1340.720, 547.550 1340, 547 1340 C 546.450 1340, 546 1339.100, 546 1338 C 546 1336.900, 545.550 1336, 545 1336 C 544.450 1336, 544 1334.902, 544 1333.559 C 544 1332.216, 543.550 1330.840, 543 1330.500 C 542.448 1330.159, 542 1325.676, 542 1320.500 C 542 1315.324, 542.448 1310.841, 543 1310.500 C 543.550 1310.160, 544 1308.559, 544 1306.941 C 544 1305.323, 544.450 1304, 545 1304 C 545.550 1304, 546 1303.265, 546 1302.367 C 546 1301.469, 546.788 1300, 547.750 1299.103 C 548.712 1298.206, 549.980 1296.608, 550.567 1295.553 C 551.154 1294.497, 552.497 1293.154, 553.553 1292.567 C 554.608 1291.980, 556.206 1290.713, 557.103 1289.750 C 558 1288.787, 559.469 1288, 560.367 1288 C 561.265 1288, 562 1287.550, 562 1287 C 562 1286.450, 562.873 1286, 563.941 1286 C 565.009 1286, 566.160 1285.550, 566.500 1285 C 566.841 1284.448, 571.324 1284, 576.500 1284 C 581.676 1284, 586.159 1284.448, 586.500 1285 C 586.840 1285.550, 588.216 1286, 589.559 1286 C 590.902 1286, 592 1286.450, 592 1287 C 592 1287.550, 592.670 1288, 593.489 1288 C 594.307 1288, 595.965 1288.787, 597.172 1289.750 C 599.367 1291.499, 600.268 1292.436, 606.074 1299 C 608.054 1301.238, 609.350 1302.049, 609.668 1301.250 C 609.942 1300.563, 611.029 1300, 612.083 1300 C 613.138 1300, 614 1299.550, 614 1299 C 614 1298.450, 614.900 1298, 616 1298 C 617.100 1298, 618 1297.550, 618 1297 C 618 1296.450, 618.590 1296, 619.311 1296 C 620.033 1296, 621.589 1295.100, 622.770 1294 C 623.950 1292.900, 625.610 1292, 626.458 1292 C 627.306 1292, 628 1291.550, 628 1291 C 628 1290.450, 628.900 1290, 630 1290 C 631.100 1290, 632 1289.550, 632 1289 C 632 1288.450, 632.900 1288, 634 1288 C 635.100 1288, 636 1287.660, 636 1287.244 C 636 1286.828, 637.350 1285.891, 639 1285.160 C 642.512 1283.606, 642.751 1282.184, 640 1279.230 C 638.900 1278.050, 638 1276.656, 638 1276.133 C 638 1274.931, 621.427 1258, 620.250 1258 C 619.770 1258, 618.505 1257.200, 617.439 1256.223 C 614.744 1253.754, 603.223 1248, 600.973 1248 C 599.953 1248, 598.840 1247.550, 598.500 1247 C 598.160 1246.450, 596.585 1246, 595 1246 C 593.415 1246, 591.840 1245.550, 591.500 1245 C 591.131 1244.403, 584.656 1244, 575.441 1244 C 565.814 1244, 560 1244.377, 560 1245 M 716.500 1245 C 716.160 1245.550, 714.360 1246, 712.500 1246 C 710.640 1246, 708.840 1246.450, 708.500 1247 C 708.160 1247.550, 707.009 1248, 705.941 1248 C 704.873 1248, 704 1248.450, 704 1249 C 704 1249.550, 703.274 1250, 702.386 1250 C 700.603 1250, 692.694 1254.063, 692.167 1255.250 C 691.983 1255.662, 691.250 1256, 690.537 1256 C 689.824 1256, 687.386 1257.800, 685.119 1260 C 682.852 1262.200, 680.632 1264, 680.186 1264 C 679.159 1264, 674 1269.340, 674 1270.404 C 674 1270.840, 672.650 1272.459, 671 1274 C 669.350 1275.541, 668 1277.522, 668 1278.401 C 668 1279.281, 667.550 1280, 667 1280 C 666.450 1280, 666 1280.900, 666 1282 C 666 1283.100, 665.550 1284, 665 1284 C 664.450 1284, 664 1284.900, 664 1286 C 664 1287.100, 663.550 1288, 663 1288 C 662.450 1288, 662 1288.900, 662 1290 C 662 1291.100, 661.550 1292, 661 1292 C 660.450 1292, 660 1293.098, 660 1294.441 C 660 1295.784, 659.550 1297.160, 659 1297.500 C 658.450 1297.840, 658 1299.640, 658 1301.500 C 658 1303.360, 657.550 1305.160, 657 1305.500 C 656.411 1305.864, 656 1311.844, 656 1320.059 C 656 1328.686, 656.381 1334, 657 1334 C 657.550 1334, 658 1335.800, 658 1338 C 658 1340.200, 658.450 1342, 659 1342 C 659.550 1342, 660 1343.350, 660 1345 C 660 1346.650, 660.450 1348, 661 1348 C 661.550 1348, 662 1348.900, 662 1350 C 662 1351.100, 662.450 1352, 663 1352 C 663.550 1352, 664 1352.900, 664 1354 C 664 1355.100, 664.450 1356, 665 1356 C 665.550 1356, 666 1356.900, 666 1358 C 666 1359.100, 666.450 1360, 667 1360 C 667.550 1360, 668 1360.681, 668 1361.513 C 668 1363.352, 686.448 1382, 688.266 1382 C 688.977 1382, 690.207 1382.900, 691 1384 C 691.793 1385.100, 693.242 1386, 694.221 1386 C 695.199 1386, 696 1386.450, 696 1387 C 696 1387.550, 696.900 1388, 698 1388 C 699.100 1388, 700 1388.450, 700 1389 C 700 1389.550, 701.350 1390, 703 1390 C 704.650 1390, 706 1390.450, 706 1391 C 706 1391.550, 707.350 1392, 709 1392 C 710.650 1392, 712 1392.410, 712 1392.911 C 712 1395.728, 748.516 1395.728, 751.450 1392.912 C 751.972 1392.410, 753.660 1392, 755.200 1392 C 756.740 1392, 758 1391.550, 758 1391 C 758 1390.450, 759.098 1390, 760.441 1390 C 761.784 1390, 763.160 1389.550, 763.500 1389 C 763.840 1388.450, 764.991 1388, 766.059 1388 C 767.127 1388, 768 1387.550, 768 1387 C 768 1386.450, 768.590 1386, 769.311 1386 C 770.033 1386, 771.589 1385.100, 772.770 1384 C 773.950 1382.900, 775.344 1382, 775.867 1382 C 777.334 1382, 793.320 1365.848, 794.919 1362.750 C 795.699 1361.237, 796.712 1360, 797.169 1360 C 797.626 1360, 798 1359.100, 798 1358 C 798 1356.900, 798.450 1356, 799 1356 C 799.550 1356, 800 1355.100, 800 1354 C 800 1352.900, 800.450 1352, 801 1352 C 801.550 1352, 802 1351.100, 802 1350 C 802 1348.900, 802.450 1348, 803 1348 C 803.550 1348, 804 1346.650, 804 1345 C 804 1343.350, 804.450 1342, 805 1342 C 805.550 1342, 806 1340.227, 806 1338.059 C 806 1335.891, 806.450 1333.840, 807 1333.500 C 807.583 1333.140, 808 1327.509, 808 1320 C 808 1312.491, 807.583 1306.860, 807 1306.500 C 806.450 1306.160, 806 1304.109, 806 1301.941 C 806 1299.773, 805.550 1298, 805 1298 C 804.450 1298, 804 1296.650, 804 1295 C 804 1293.350, 803.550 1292, 803 1292 C 802.450 1292, 802 1291.100, 802 1290 C 802 1288.900, 801.550 1288, 801 1288 C 800.450 1288, 800 1287.100, 800 1286 C 800 1284.900, 799.550 1284, 799 1284 C 798.450 1284, 798 1283.100, 798 1282 C 798 1280.900, 797.550 1280, 797 1280 C 796.450 1280, 796 1279.379, 796 1278.621 C 796 1277.862, 794.200 1275.386, 792 1273.119 C 789.800 1270.852, 788 1268.600, 788 1268.114 C 788 1267.628, 786.763 1266.421, 785.250 1265.432 C 783.737 1264.442, 780.848 1261.916, 778.828 1259.817 C 776.809 1257.717, 774.653 1256, 774.037 1256 C 773.420 1256, 771.950 1255.100, 770.770 1254 C 769.589 1252.900, 768.033 1252, 767.311 1252 C 766.590 1252, 766 1251.550, 766 1251 C 766 1250.450, 765.094 1250, 763.986 1250 C 762.879 1250, 761.079 1249.550, 759.986 1249 C 758.894 1248.450, 757.106 1247.550, 756.014 1247 C 754.921 1246.450, 752.698 1246, 751.073 1246 C 749.448 1246, 747.840 1245.550, 747.500 1245 C 747.133 1244.406, 740.843 1244, 732 1244 C 723.157 1244, 716.867 1244.406, 716.500 1245 M 910.500 1244.958 C 909.400 1245.454, 906.389 1245.891, 903.809 1245.930 C 901.229 1245.968, 898.840 1246.450, 898.500 1247 C 898.160 1247.550, 897.212 1248, 896.393 1248 C 894.913 1248, 889.744 1250.305, 885.045 1253.061 C 883.695 1253.852, 880.462 1256.638, 877.860 1259.250 C 875.258 1261.862, 872.874 1264, 872.561 1264 C 872.248 1264, 872.076 1262.763, 872.179 1261.250 C 872.282 1259.737, 872.283 1256.588, 872.183 1254.250 L 872 1250 853 1250 L 834 1250 834 1321 L 834 1392 852.978 1392 L 871.957 1392 872.361 1350.750 C 872.758 1310.232, 873.310 1300, 875.101 1300 C 875.595 1300, 876 1299.100, 876 1298 C 876 1296.900, 876.450 1296, 877 1296 C 877.550 1296, 878.001 1295.438, 878.001 1294.750 C 878.003 1293.259, 882.355 1288.009, 883.616 1287.978 C 884.102 1287.966, 885.625 1287.076, 887 1286 C 888.375 1284.924, 890.711 1284.034, 892.191 1284.022 C 893.671 1284.010, 895.160 1283.550, 895.500 1283 C 895.840 1282.450, 899.440 1282, 903.500 1282 C 907.560 1282, 911.160 1282.450, 911.500 1283 C 911.840 1283.550, 912.991 1284, 914.059 1284 C 915.127 1284, 916 1284.450, 916 1285 C 916 1285.550, 916.690 1286, 917.533 1286 C 919.524 1286, 926 1292.476, 926 1294.467 C 926 1295.310, 926.450 1296, 927 1296 C 927.550 1296, 928 1297.098, 928 1298.441 C 928 1299.784, 928.450 1301.160, 929 1301.500 C 929.642 1301.897, 930 1317.777, 930 1345.859 C 930 1378.546, 930.303 1389.903, 931.200 1390.800 C 933.074 1392.674, 966.674 1392.469, 968.571 1390.571 C 969.769 1389.374, 970 1381.608, 970 1342.630 C 970 1312.701, 969.643 1295.898, 969 1295.500 C 968.450 1295.160, 968 1292.434, 968 1289.441 C 968 1286.448, 967.550 1284, 967 1284 C 966.450 1284, 966 1282.650, 966 1281 C 966 1279.350, 965.550 1278, 965 1278 C 964.450 1278, 964 1277.368, 964 1276.595 C 964 1275.821, 962.987 1273.234, 961.750 1270.845 C 959.255 1266.027, 945.594 1252, 943.398 1252 C 942.629 1252, 942 1251.550, 942 1251 C 942 1250.450, 941.100 1250, 940 1250 C 938.900 1250, 938 1249.550, 938 1249 C 938 1248.450, 936.650 1248, 935 1248 C 933.350 1248, 932 1247.590, 932 1247.089 C 932 1246.588, 929.413 1245.935, 926.250 1245.639 C 923.087 1245.343, 918.700 1244.866, 916.500 1244.578 C 914.300 1244.291, 911.600 1244.462, 910.500 1244.958 M 1173 1244.962 C 1171.625 1245.423, 1168.164 1245.845, 1165.309 1245.900 C 1162.454 1245.955, 1159.840 1246.450, 1159.500 1247 C 1159.160 1247.550, 1157.334 1248, 1155.441 1248 C 1153.548 1248, 1152 1248.450, 1152 1249 C 1152 1249.550, 1151.100 1250, 1150 1250 C 1148.900 1250, 1148 1250.450, 1148 1251 C 1148 1251.550, 1147.100 1252, 1146 1252 C 1144.900 1252, 1144 1252.450, 1144 1253 C 1144 1253.550, 1143.100 1254, 1142 1254 C 1140.900 1254, 1140 1254.450, 1140 1255 C 1140 1255.550, 1139.199 1256, 1138.221 1256 C 1137.242 1256, 1135.793 1256.900, 1135 1258 C 1134.207 1259.100, 1133.043 1260, 1132.414 1260 C 1130.795 1260, 1120.784 1269.949, 1119.081 1273.250 C 1118.301 1274.763, 1117.288 1276, 1116.831 1276 C 1116.374 1276, 1116 1276.590, 1116 1277.311 C 1116 1278.033, 1115.100 1279.589, 1114 1280.770 C 1112.900 1281.950, 1112 1283.610, 1112 1284.458 C 1112 1285.306, 1111.550 1286, 1111 1286 C 1110.450 1286, 1110 1287.350, 1110 1289 C 1110 1290.650, 1109.550 1292, 1109 1292 C 1108.450 1292, 1108 1293.098, 1108 1294.441 C 1108 1295.784, 1107.550 1297.160, 1107 1297.500 C 1106.450 1297.840, 1106 1299.640, 1106 1301.500 C 1106 1303.360, 1105.550 1305.160, 1105 1305.500 C 1104.408 1305.866, 1104 1311.991, 1104 1320.500 C 1104 1329.009, 1104.408 1335.134, 1105 1335.500 C 1105.550 1335.840, 1106 1337.640, 1106 1339.500 C 1106 1341.360, 1106.450 1343.160, 1107 1343.500 C 1107.550 1343.840, 1108 1345.190, 1108 1346.500 C 1108 1347.810, 1108.450 1349.160, 1109 1349.500 C 1109.550 1349.840, 1110 1350.991, 1110 1352.059 C 1110 1353.127, 1110.450 1354, 1111 1354 C 1111.550 1354, 1112 1354.900, 1112 1356 C 1112 1357.100, 1112.450 1358, 1113 1358 C 1113.550 1358, 1114 1358.801, 1114 1359.779 C 1114 1360.758, 1114.900 1362.207, 1116 1363 C 1117.100 1363.793, 1118 1365.026, 1118 1365.739 C 1118 1367.424, 1129.720 1379.077, 1133.268 1380.919 C 1134.770 1381.699, 1136 1382.712, 1136 1383.169 C 1136 1383.626, 1136.694 1384, 1137.542 1384 C 1138.390 1384, 1140.011 1384.864, 1141.144 1385.920 C 1142.278 1386.976, 1145.184 1388.424, 1147.603 1389.138 C 1150.021 1389.852, 1152 1390.739, 1152 1391.109 C 1152 1392.424, 1172.817 1395.245, 1182 1395.174 C 1190.905 1395.106, 1200.304 1394.013, 1201.450 1392.912 C 1201.972 1392.410, 1203.660 1392, 1205.200 1392 C 1206.740 1392, 1208 1391.550, 1208 1391 C 1208 1390.450, 1209.350 1390, 1211 1390 C 1212.650 1390, 1214 1389.550, 1214 1389 C 1214 1388.450, 1214.900 1388, 1216 1388 C 1217.100 1388, 1218 1387.550, 1218 1387 C 1218 1386.450, 1218.590 1386, 1219.311 1386 C 1220.033 1386, 1221.589 1385.100, 1222.770 1384 C 1223.950 1382.900, 1225.360 1382, 1225.903 1382 C 1227.331 1382, 1240 1369.117, 1240 1367.665 C 1240 1366.992, 1240.900 1365.793, 1242 1365 C 1244.293 1363.348, 1244.602 1362, 1242.689 1362 C 1241.967 1362, 1240.411 1361.100, 1239.230 1360 C 1238.050 1358.900, 1236.390 1358, 1235.542 1358 C 1234.694 1358, 1234 1357.550, 1234 1357 C 1234 1356.450, 1233.100 1356, 1232 1356 C 1230.900 1356, 1230 1355.550, 1230 1355 C 1230 1354.450, 1229.100 1354, 1228 1354 C 1226.900 1354, 1226 1353.550, 1226 1353 C 1226 1352.450, 1225.410 1352, 1224.689 1352 C 1223.967 1352, 1222.411 1351.100, 1221.230 1350 C 1220.050 1348.900, 1218.583 1348, 1217.970 1348 C 1217.358 1348, 1216.182 1347.325, 1215.357 1346.500 C 1213.157 1344.300, 1212.501 1344.552, 1207.553 1349.500 C 1205.078 1351.975, 1202.366 1354, 1201.526 1354 C 1200.687 1354, 1200 1354.450, 1200 1355 C 1200 1355.550, 1199.100 1356, 1198 1356 C 1196.900 1356, 1196 1356.405, 1196 1356.899 C 1196 1358.625, 1175.266 1360.666, 1173.694 1359.094 C 1173.092 1358.492, 1170.917 1358, 1168.859 1358 C 1166.801 1358, 1164.840 1357.550, 1164.500 1357 C 1164.160 1356.450, 1163.009 1356, 1161.941 1356 C 1160.873 1356, 1160 1355.550, 1160 1355 C 1160 1354.450, 1159.313 1354, 1158.474 1354 C 1156.489 1354, 1148 1345.511, 1148 1343.526 C 1148 1342.687, 1147.550 1342, 1147 1342 C 1146.450 1342, 1146 1340.650, 1146 1339 L 1146 1336 1196.899 1336 L 1247.799 1336 1248.451 1331.250 C 1249.872 1320.908, 1250.154 1311.754, 1249.083 1310.683 C 1248.487 1310.087, 1248 1307.467, 1248 1304.859 C 1248 1302.251, 1247.550 1299.840, 1247 1299.500 C 1246.450 1299.160, 1246 1297.777, 1246 1296.427 C 1246 1295.077, 1245.603 1293.191, 1245.117 1292.236 C 1244.631 1291.281, 1243.671 1289.150, 1242.983 1287.500 C 1240.495 1281.530, 1239.647 1280, 1238.831 1280 C 1238.374 1280, 1238 1279.199, 1238 1278.221 C 1238 1277.242, 1237.100 1275.793, 1236 1275 C 1234.900 1274.207, 1234 1272.948, 1234 1272.203 C 1234 1270.712, 1221.328 1258, 1219.842 1258 C 1219.333 1258, 1217.950 1257.100, 1216.770 1256 C 1215.589 1254.900, 1214.033 1254, 1213.311 1254 C 1212.590 1254, 1212 1253.550, 1212 1253 C 1212 1252.450, 1211.100 1252, 1210 1252 C 1208.900 1252, 1208 1251.550, 1208 1251 C 1208 1250.450, 1206.902 1250, 1205.559 1250 C 1204.216 1250, 1202.840 1249.550, 1202.500 1249 C 1202.160 1248.450, 1200.874 1248, 1199.641 1248 C 1198.408 1248, 1196.973 1247.596, 1196.450 1247.101 C 1195.928 1246.607, 1192.350 1245.954, 1188.500 1245.650 C 1184.650 1245.347, 1180.150 1244.879, 1178.500 1244.611 C 1176.850 1244.343, 1174.375 1244.501, 1173 1244.962 M 1315.250 1245.788 C 1310.162 1245.946, 1306 1246.508, 1306 1247.038 C 1306 1247.567, 1304.650 1248, 1303 1248 C 1301.350 1248, 1300 1248.450, 1300 1249 C 1300 1249.550, 1298.987 1250.010, 1297.750 1250.022 C 1296.513 1250.034, 1294.375 1250.924, 1293 1252 C 1291.625 1253.076, 1289.938 1253.966, 1289.250 1253.978 C 1288.563 1253.990, 1288 1254.450, 1288 1255 C 1288 1255.550, 1287.413 1256, 1286.695 1256 C 1284.919 1256, 1278.814 1261.870, 1277.076 1265.250 C 1276.298 1266.763, 1275.288 1268, 1274.831 1268 C 1274.374 1268, 1274 1268.900, 1274 1270 C 1274 1271.100, 1273.550 1272, 1273 1272 C 1272.450 1272, 1272 1273.035, 1272 1274.300 C 1272 1275.565, 1271.476 1277.124, 1270.835 1277.765 C 1269.268 1279.332, 1269.298 1302.698, 1270.869 1304.269 C 1271.491 1304.891, 1272 1306.435, 1272 1307.700 C 1272 1308.965, 1272.450 1310, 1273 1310 C 1273.550 1310, 1274 1310.615, 1274 1311.366 C 1274 1313.306, 1284.507 1324, 1286.414 1324 C 1287.286 1324, 1288 1324.450, 1288 1325 C 1288 1325.550, 1288.900 1326, 1290 1326 C 1291.100 1326, 1292 1326.450, 1292 1327 C 1292 1327.550, 1292.900 1328, 1294 1328 C 1295.100 1328, 1296 1328.450, 1296 1329 C 1296 1329.550, 1296.873 1330, 1297.941 1330 C 1299.009 1330, 1300.160 1330.450, 1300.500 1331 C 1300.840 1331.550, 1302.415 1332, 1304 1332 C 1305.585 1332, 1307.160 1332.450, 1307.500 1333 C 1307.840 1333.550, 1309.415 1334, 1311 1334 C 1312.585 1334, 1314.160 1334.450, 1314.500 1335 C 1314.840 1335.550, 1316.666 1336, 1318.559 1336 C 1320.452 1336, 1322 1336.450, 1322 1337 C 1322 1337.550, 1323.548 1338, 1325.441 1338 C 1327.334 1338, 1329.160 1338.450, 1329.500 1339 C 1329.840 1339.550, 1330.991 1340, 1332.059 1340 C 1333.127 1340, 1334 1340.450, 1334 1341 C 1334 1341.550, 1334.707 1342, 1335.571 1342 C 1337.592 1342, 1340 1344.408, 1340 1346.429 C 1340 1347.293, 1340.450 1348, 1341 1348 C 1342.377 1348, 1342.254 1350.581, 1340.750 1353.225 C 1337.526 1358.894, 1334.639 1360, 1323.073 1360 C 1317.515 1360, 1312.845 1359.558, 1312.500 1359 C 1312.160 1358.450, 1311.138 1358, 1310.228 1358 C 1308.320 1358, 1298 1347.464, 1298 1345.516 C 1298 1343.285, 1294.959 1342.916, 1291.660 1344.747 C 1289.922 1345.711, 1288.350 1346.838, 1288.167 1347.250 C 1287.983 1347.662, 1286.971 1348, 1285.917 1348 C 1284.862 1348, 1284 1348.450, 1284 1349 C 1284 1349.550, 1283.306 1350, 1282.458 1350 C 1281.610 1350, 1279.950 1350.900, 1278.770 1352 C 1277.589 1353.100, 1276.033 1354, 1275.311 1354 C 1274.590 1354, 1274 1354.450, 1274 1355 C 1274 1355.550, 1273.100 1356, 1272 1356 C 1270.900 1356, 1270 1356.450, 1270 1357 C 1270 1357.550, 1269.293 1358, 1268.429 1358 C 1267.564 1358, 1266.214 1358.643, 1265.429 1359.429 C 1263.790 1361.067, 1263.515 1364, 1265 1364 C 1265.550 1364, 1266 1364.900, 1266 1366 C 1266 1367.100, 1266.374 1368, 1266.831 1368 C 1267.288 1368, 1268.301 1369.231, 1269.081 1370.735 C 1270.998 1374.430, 1280.604 1384, 1282.395 1384 C 1283.186 1384, 1283.983 1384.352, 1284.167 1384.783 C 1284.751 1386.155, 1292.040 1390, 1294.057 1390 C 1295.126 1390, 1296 1390.450, 1296 1391 C 1296 1391.550, 1297.260 1392, 1298.800 1392 C 1300.340 1392, 1302.028 1392.409, 1302.550 1392.908 C 1305.591 1395.814, 1340.423 1395.818, 1343.450 1392.912 C 1343.972 1392.410, 1345.660 1392, 1347.200 1392 C 1348.740 1392, 1350 1391.550, 1350 1391 C 1350 1390.450, 1350.900 1390, 1352 1390 C 1353.100 1390, 1354 1389.550, 1354 1389 C 1354 1388.450, 1354.900 1388, 1356 1388 C 1357.100 1388, 1358 1387.550, 1358 1387 C 1358 1386.450, 1358.693 1386, 1359.540 1386 C 1362.146 1386, 1373.692 1373.656, 1376.009 1368.394 C 1377.194 1365.702, 1378.577 1362.719, 1379.082 1361.764 C 1380.253 1359.548, 1380.293 1336, 1379.125 1336 C 1378.644 1336, 1377.991 1334.704, 1377.674 1333.121 C 1377.357 1331.537, 1376.401 1329.544, 1375.549 1328.692 C 1374.697 1327.840, 1374 1326.646, 1374 1326.038 C 1374 1324.527, 1368.100 1318.818, 1364.743 1317.081 C 1363.234 1316.301, 1362 1315.288, 1362 1314.831 C 1362 1314.374, 1361.100 1314, 1360 1314 C 1358.900 1314, 1358 1313.550, 1358 1313 C 1358 1312.450, 1357.100 1312, 1356 1312 C 1354.900 1312, 1354 1311.550, 1354 1311 C 1354 1310.450, 1352.902 1310, 1351.559 1310 C 1350.216 1310, 1348.840 1309.550, 1348.500 1309 C 1348.160 1308.450, 1346.559 1308, 1344.941 1308 C 1343.323 1308, 1342 1307.550, 1342 1307 C 1342 1306.450, 1340.677 1306, 1339.059 1306 C 1337.441 1306, 1335.840 1305.550, 1335.500 1305 C 1335.160 1304.450, 1333.334 1304, 1331.441 1304 C 1329.548 1304, 1328 1303.550, 1328 1303 C 1328 1302.450, 1326.677 1302, 1325.059 1302 C 1323.441 1302, 1321.840 1301.550, 1321.500 1301 C 1321.160 1300.450, 1319.784 1300, 1318.441 1300 C 1317.098 1300, 1316 1299.550, 1316 1299 C 1316 1298.450, 1315.305 1298, 1314.455 1298 C 1312.246 1298, 1308 1293.456, 1308 1291.093 C 1308 1288.094, 1309.879 1284.556, 1312.264 1283.067 C 1314.929 1281.403, 1333.255 1281.264, 1333.801 1282.903 C 1334.002 1283.506, 1334.849 1284, 1335.682 1284 C 1337.489 1284, 1342.641 1289.295, 1343.516 1292.051 C 1343.944 1293.399, 1345.039 1294, 1347.067 1294 C 1348.680 1294, 1350 1293.621, 1350 1293.157 C 1350 1292.694, 1352.138 1291.231, 1354.750 1289.907 C 1357.362 1288.583, 1359.650 1287.162, 1359.833 1286.750 C 1360.017 1286.338, 1361.029 1286, 1362.083 1286 C 1363.138 1286, 1364 1285.550, 1364 1285 C 1364 1284.450, 1364.900 1284, 1366 1284 C 1367.100 1284, 1368 1283.550, 1368 1283 C 1368 1282.450, 1368.900 1282, 1370 1282 C 1371.100 1282, 1372 1281.550, 1372 1281 C 1372 1280.450, 1372.707 1280, 1373.571 1280 C 1374.436 1280, 1375.846 1279.296, 1376.706 1278.436 C 1378.032 1277.111, 1378.071 1276.502, 1376.966 1274.436 C 1376.249 1273.096, 1375.288 1272, 1374.831 1272 C 1374.374 1272, 1374 1271.317, 1374 1270.481 C 1374 1268.634, 1361.559 1256, 1359.739 1256 C 1359.026 1256, 1357.793 1255.100, 1357 1254 C 1356.207 1252.900, 1354.758 1252, 1353.779 1252 C 1352.801 1252, 1352 1251.550, 1352 1251 C 1352 1250.450, 1351.127 1250, 1350.059 1250 C 1348.991 1250, 1347.840 1249.550, 1347.500 1249 C 1347.160 1248.450, 1345.649 1248, 1344.141 1248 C 1342.633 1248, 1340.973 1247.594, 1340.450 1247.098 C 1339.293 1245.999, 1327.750 1245.399, 1315.250 1245.788 M 1166 1282.994 C 1165.175 1283.476, 1163.037 1284.460, 1161.250 1285.180 C 1159.463 1285.899, 1158 1286.828, 1158 1287.244 C 1158 1287.660, 1157.305 1288, 1156.455 1288 C 1154.691 1288, 1150 1292.358, 1150 1293.996 C 1150 1294.594, 1149.100 1296.050, 1148 1297.230 C 1146.900 1298.411, 1146 1300.166, 1146 1301.130 C 1146 1302.093, 1145.550 1303.160, 1145 1303.500 C 1141.583 1305.612, 1146.555 1306, 1177 1306 C 1209.333 1306, 1210 1305.960, 1210 1304 C 1210 1302.900, 1209.606 1302, 1209.125 1302 C 1208.644 1302, 1207.990 1300.702, 1207.673 1299.116 C 1207.017 1295.836, 1197.937 1286, 1195.565 1286 C 1194.704 1286, 1194 1285.660, 1194 1285.243 C 1194 1282.616, 1169.953 1280.684, 1166 1282.994 M 720 1284.994 C 719.175 1285.476, 717.038 1286.460, 715.250 1287.180 C 713.462 1287.899, 712 1288.828, 712 1289.244 C 712 1289.660, 711.273 1290, 710.385 1290 C 708.517 1290, 702 1296.759, 702 1298.695 C 702 1299.413, 701.550 1300, 701 1300 C 700.450 1300, 700 1300.900, 700 1302 C 700 1303.100, 699.550 1304, 699 1304 C 698.450 1304, 698 1304.810, 698 1305.800 C 698 1306.790, 697.526 1308.074, 696.946 1308.654 C 695.537 1310.063, 695.522 1330.922, 696.929 1332.329 C 697.518 1332.918, 698 1334.435, 698 1335.700 C 698 1336.965, 698.450 1338, 699 1338 C 699.550 1338, 700 1338.685, 700 1339.522 C 700 1341.502, 710.498 1352, 712.478 1352 C 713.315 1352, 714 1352.450, 714 1353 C 714 1353.550, 714.900 1354, 716 1354 C 717.100 1354, 718 1354.450, 718 1355 C 718 1355.550, 719.548 1356, 721.441 1356 C 723.334 1356, 725.160 1356.450, 725.500 1357 C 725.840 1357.550, 728.540 1358, 731.500 1358 C 734.460 1358, 737.160 1357.550, 737.500 1357 C 737.840 1356.450, 739.891 1356, 742.059 1356 C 744.227 1356, 746 1355.550, 746 1355 C 746 1354.450, 746.900 1354, 748 1354 C 749.100 1354, 750 1353.550, 750 1353 C 750 1352.450, 750.687 1352, 751.526 1352 C 753.057 1352, 761.981 1343.733, 762.022 1342.276 C 762.034 1341.849, 762.924 1340.375, 764 1339 C 765.076 1337.625, 765.966 1335.514, 765.978 1334.309 C 765.990 1333.104, 766.450 1331.840, 767 1331.500 C 767.568 1331.149, 768 1326.176, 768 1320 C 768 1313.824, 767.568 1308.851, 767 1308.500 C 766.450 1308.160, 766 1307.009, 766 1305.941 C 766 1304.873, 765.550 1304, 765 1304 C 764.450 1304, 764 1303.100, 764 1302 C 764 1300.900, 763.580 1300, 763.067 1300 C 762.554 1300, 761.866 1299.153, 761.538 1298.119 C 760.721 1295.544, 758.042 1292.765, 754.750 1291.074 C 753.237 1290.298, 752 1289.288, 752 1288.831 C 752 1288.374, 751.100 1288, 750 1288 C 748.900 1288, 748 1287.550, 748 1287 C 748 1286.450, 747.127 1286, 746.059 1286 C 744.991 1286, 743.840 1285.550, 743.500 1285 C 742.739 1283.769, 722.105 1283.764, 720 1284.994"/>
  </g>
</svg>
