<svg xmlns="http://www.w3.org/2000/svg" viewBox="134 423 1688 873" data-bbox="184.0 473.3 1772.4 1246.4">
  <g id="jom">
    <path id="jom-letters" fill="#0E9C47" fill-rule="evenodd" d="M 324 474.963 C 323.175 475.516, 320.839 475.976, 318.809 475.985 C 316.779 475.993, 314.840 476.450, 314.500 477 C 314.160 477.550, 313.002 478, 311.927 478 C 310.852 478, 309.191 478.411, 308.236 478.913 C 307.281 479.415, 303.914 481.023, 300.754 482.485 C 293.178 485.990, 284.194 492.826, 279.398 498.735 C 277.270 501.356, 274.736 504.372, 273.765 505.439 C 272.794 506.505, 272 507.930, 272 508.605 C 272 509.281, 271.663 509.983, 271.250 510.167 C 270.837 510.350, 269.438 512.750, 268.141 515.500 C 266.843 518.250, 265.380 521.281, 264.891 522.236 C 264.401 523.191, 264 524.852, 264 525.927 C 264 527.002, 263.606 528.125, 263.125 528.423 C 260.211 530.224, 260.223 563.784, 263.139 565.586 C 263.613 565.879, 264 566.998, 264 568.073 C 264 569.148, 264.401 570.809, 264.891 571.764 C 265.380 572.719, 266.843 575.750, 268.141 578.500 C 269.438 581.250, 270.837 583.650, 271.250 583.833 C 271.663 584.017, 272.002 584.692, 272.004 585.333 C 272.010 587.384, 282.801 599.525, 288.877 604.318 C 291.646 606.502, 295.655 608.806, 303.986 613 C 305.079 613.550, 306.852 614, 307.927 614 C 309.002 614, 310.160 614.450, 310.500 615 C 310.840 615.550, 312.126 616, 313.359 616 C 314.592 616, 316.133 616.533, 316.784 617.184 C 317.585 617.985, 322.587 618.370, 332.234 618.374 C 345.613 618.380, 350.798 617.625, 356.236 614.877 C 357.191 614.395, 358.457 614, 359.049 614 C 361.342 614, 372.718 607.829, 377 604.263 C 385.562 597.132, 393.945 587.746, 393.982 585.250 C 393.992 584.563, 394.450 584, 395 584 C 395.550 584, 396 583.100, 396 582 C 396 580.900, 396.340 580, 396.756 580 C 397.625 580, 398.888 577.157, 402.085 568 C 404.083 562.277, 404.344 559.665, 404.270 546.143 C 404.218 536.476, 403.781 530.381, 403.093 529.693 C 402.492 529.092, 401.986 527.678, 401.969 526.550 C 401.951 525.423, 400.601 521.811, 398.969 518.525 C 397.336 515.239, 396 511.977, 396 511.275 C 396 510.574, 395.626 510, 395.169 510 C 394.712 510, 393.699 508.766, 392.919 507.257 C 391.226 503.983, 387.806 499.798, 382.912 495.010 C 375.717 487.971, 372.313 485.510, 364.500 481.700 C 362.300 480.627, 359.719 479.356, 358.764 478.875 C 357.809 478.394, 356.211 478, 355.214 478 C 354.216 478, 352.973 477.596, 352.450 477.102 C 350.304 475.075, 326.500 473.284, 324 474.963 M 639.500 641.662 C 630.150 642.354, 619.800 643.405, 616.500 643.999 C 613.200 644.592, 608.700 645.332, 606.500 645.642 C 604.300 645.951, 602.072 646.609, 601.550 647.102 C 601.028 647.596, 599.142 648, 597.359 648 C 595.576 648, 593.840 648.450, 593.500 649 C 593.160 649.550, 592.002 650, 590.927 650 C 589.852 650, 588.191 650.406, 587.236 650.903 C 586.281 651.399, 583.475 652.377, 581 653.076 C 578.525 653.776, 576.072 654.720, 575.550 655.174 C 575.028 655.628, 573.918 656, 573.085 656 C 571.599 656, 556.921 662.670, 552 665.581 C 550.625 666.395, 547.813 667.828, 545.750 668.766 C 543.688 669.704, 542 670.816, 542 671.236 C 542 671.656, 541.438 672.001, 540.750 672.002 C 540.063 672.004, 537.925 673.353, 536 675 C 534.075 676.647, 531.938 677.996, 531.250 677.998 C 530.563 677.999, 530 678.420, 530 678.933 C 530 679.446, 529.153 680.134, 528.119 680.462 C 527.084 680.791, 525.172 681.997, 523.869 683.143 C 522.566 684.289, 519.944 686.413, 518.041 687.863 C 507.056 696.238, 488.444 714.909, 482.010 724.012 C 480.653 725.930, 478.556 728.498, 477.349 729.718 C 476.143 730.938, 474.865 732.850, 474.510 733.968 C 474.155 735.086, 473.446 736, 472.933 736 C 472.420 736, 472 736.590, 472 737.311 C 472 738.033, 471.212 739.518, 470.250 740.612 C 469.288 741.707, 468.008 743.479, 467.406 744.551 C 466.804 745.623, 465.679 747.625, 464.906 749 C 464.133 750.375, 463.263 751.725, 462.973 752 C 461.302 753.586, 448 782.396, 448 784.430 C 448 785.229, 447.550 786.160, 447 786.500 C 446.450 786.840, 446 788.190, 446 789.500 C 446 790.810, 445.550 792.160, 445 792.500 C 444.450 792.840, 444 794.190, 444 795.500 C 444 796.810, 443.550 798.160, 443 798.500 C 442.450 798.840, 442 800.415, 442 802 C 442 803.585, 441.598 805.131, 441.106 805.435 C 440.614 805.739, 439.962 807.678, 439.656 809.744 C 439.351 811.810, 438.603 815.975, 437.994 819 C 434.406 836.819, 432.701 865.365, 434.023 885.500 C 435.494 907.912, 436.075 913.403, 437.084 914.450 C 437.588 914.972, 438 917.308, 438 919.641 C 438 921.974, 438.450 924.160, 439 924.500 C 439.550 924.840, 440 926.640, 440 928.500 C 440 930.360, 440.450 932.160, 441 932.500 C 441.550 932.840, 442 934.415, 442 936 C 442 937.585, 442.450 939.160, 443 939.500 C 443.550 939.840, 444 941.190, 444 942.500 C 444 943.810, 444.450 945.160, 445 945.500 C 445.550 945.840, 446 946.998, 446 948.073 C 446 949.148, 446.412 950.809, 446.916 951.764 C 447.420 952.719, 448.594 955.300, 449.525 957.500 C 450.456 959.700, 451.844 962.807, 452.609 964.404 C 453.374 966.001, 454 967.913, 454 968.654 C 454 969.394, 454.450 970, 455 970 C 455.550 970, 456 970.585, 456 971.301 C 456 973.140, 458.352 977.983, 459.250 977.992 C 459.663 977.996, 460 978.900, 460 980 C 460 981.100, 460.398 982, 460.883 982 C 461.369 982, 462.016 982.788, 462.322 983.750 C 462.881 985.513, 466.050 991.072, 467.025 992 C 467.314 992.275, 469.097 995.087, 470.987 998.250 C 472.876 1001.413, 474.777 1004, 475.211 1004 C 475.645 1004, 476 1004.608, 476 1005.352 C 476 1006.095, 477.238 1008.011, 478.750 1009.608 C 480.263 1011.206, 483.055 1014.535, 484.956 1017.007 C 489.155 1022.466, 509.149 1042.512, 514 1046.127 C 515.925 1047.561, 519.300 1050.359, 521.500 1052.344 C 523.700 1054.329, 526.063 1055.964, 526.750 1055.977 C 527.438 1055.990, 528 1056.395, 528 1056.879 C 528 1057.362, 529.350 1058.317, 531 1059 C 532.650 1059.683, 534 1060.638, 534 1061.121 C 534 1061.605, 534.590 1062, 535.311 1062 C 536.033 1062, 537.496 1062.787, 538.562 1063.750 C 541.165 1066.098, 553.603 1072.671, 565.500 1077.985 C 568.250 1079.214, 571.281 1080.620, 572.236 1081.109 C 573.191 1081.599, 574.852 1082, 575.927 1082 C 577.002 1082, 578.105 1082.361, 578.378 1082.802 C 578.650 1083.243, 581.180 1084.232, 584 1085 C 586.820 1085.768, 589.350 1086.757, 589.622 1087.198 C 589.895 1087.639, 591.640 1088, 593.500 1088 C 595.360 1088, 597.160 1088.450, 597.500 1089 C 597.840 1089.550, 599.351 1090, 600.859 1090 C 602.367 1090, 604.028 1090.406, 604.550 1090.903 C 605.073 1091.400, 607.750 1092.081, 610.500 1092.417 C 613.250 1092.753, 619.550 1093.549, 624.500 1094.186 C 629.450 1094.823, 642.725 1095.363, 654 1095.386 C 677.191 1095.434, 692.469 1093.907, 708 1089.990 C 710.475 1089.366, 713.967 1088.613, 715.759 1088.317 C 717.552 1088.021, 719.266 1087.379, 719.568 1086.890 C 719.871 1086.400, 721.190 1086, 722.500 1086 C 723.810 1086, 725.160 1085.550, 725.500 1085 C 725.840 1084.450, 726.998 1084, 728.073 1084 C 729.148 1084, 730.809 1083.603, 731.764 1083.117 C 733.538 1082.214, 737.235 1080.668, 741.250 1079.149 C 753.001 1074.704, 785.067 1056.049, 790.837 1050.301 C 791.572 1049.569, 793.810 1047.739, 795.810 1046.235 C 800.518 1042.695, 818.695 1024.518, 822.235 1019.810 C 823.739 1017.810, 825.554 1015.572, 826.268 1014.837 C 826.982 1014.101, 828.654 1011.925, 829.985 1010 C 831.315 1008.075, 832.680 1006.275, 833.018 1006 C 834.294 1004.961, 840 996.097, 840 995.153 C 840 994.611, 840.337 994.017, 840.750 993.833 C 842.027 993.266, 847.289 984.001, 852.867 972.500 C 855.801 966.450, 858.606 960.719, 859.101 959.764 C 859.595 958.809, 860 957.340, 860 956.500 C 860 955.660, 860.397 954.191, 860.883 953.236 C 862.498 950.063, 863.740 946.573, 865.953 939 C 867.159 934.875, 868.562 930.118, 869.072 928.429 C 869.583 926.740, 870 924.242, 870 922.879 C 870 921.516, 870.406 919.972, 870.903 919.450 C 871.400 918.928, 872.060 916.475, 872.371 914 C 872.681 911.525, 873.493 905.225, 874.176 900 C 875.777 887.744, 875.777 849.256, 874.176 837 C 873.493 831.775, 872.681 825.475, 872.371 823 C 872.060 820.525, 871.400 818.072, 870.903 817.550 C 870.406 817.028, 870 814.917, 870 812.859 C 870 810.801, 869.550 808.840, 869 808.500 C 868.450 808.160, 868 806.777, 868 805.427 C 868 804.077, 867.594 802.191, 867.097 801.236 C 866.601 800.281, 865.650 797.475, 864.983 795 C 863.742 790.389, 862.444 786.832, 860.883 783.764 C 860.397 782.809, 860 781.340, 860 780.500 C 860 779.019, 859.584 777.960, 857.156 773.264 C 856.520 772.034, 856 770.346, 856 769.514 C 856 768.681, 855.550 768, 855 768 C 854.450 768, 854 767.100, 854 766 C 854 764.900, 853.550 764, 853 764 C 852.450 764, 852 763.100, 852 762 C 852 760.900, 851.550 760, 851 760 C 850.450 760, 850 759.138, 850 758.083 C 850 757.029, 849.663 756.017, 849.250 755.833 C 848.837 755.650, 847.452 753.475, 846.170 751 C 841.433 741.850, 839.458 738.464, 837.750 736.567 C 836.788 735.498, 836 734.237, 836 733.766 C 836 733.295, 834.875 731.784, 833.500 730.409 C 832.125 729.034, 830.993 727.592, 830.984 727.205 C 830.975 726.817, 829.625 724.977, 827.984 723.114 C 826.343 721.252, 825 719.344, 825 718.874 C 825 717.687, 799.239 692.035, 794.433 688.435 C 792.277 686.821, 789.513 684.522, 788.289 683.328 C 787.065 682.133, 785.150 680.865, 784.032 680.510 C 782.914 680.155, 782 679.476, 782 679 C 782 678.524, 781.155 677.867, 780.122 677.539 C 779.090 677.211, 776.952 675.831, 775.372 674.473 C 773.793 673.114, 771.938 672.002, 771.250 672.001 C 770.563 672.001, 769.996 671.663, 769.992 671.250 C 769.988 670.837, 768.975 670.022, 767.742 669.439 C 766.509 668.855, 762.575 666.885, 759 665.060 C 755.425 663.236, 751.719 661.351, 750.764 660.872 C 749.809 660.392, 748.346 660, 747.514 660 C 746.681 660, 746 659.550, 746 659 C 746 658.450, 745.319 658, 744.486 658 C 743.654 658, 742.191 657.603, 741.236 657.117 C 740.281 656.631, 738.150 655.678, 736.500 655 C 734.850 654.322, 732.719 653.369, 731.764 652.883 C 730.809 652.397, 729.148 652, 728.073 652 C 726.998 652, 725.840 651.550, 725.500 651 C 725.160 650.450, 723.585 650, 722 650 C 720.415 650, 718.871 649.600, 718.568 649.110 C 718.266 648.621, 716.552 647.965, 714.759 647.652 C 712.967 647.339, 709.025 646.597, 706 646.002 C 693.525 643.551, 688.892 642.926, 676.500 642.025 C 669.350 641.506, 661.925 640.929, 660 640.743 C 658.075 640.557, 648.850 640.971, 639.500 641.662 M 1132 641.159 C 1125.675 641.654, 1119.118 642.496, 1117.429 643.029 C 1115.740 643.563, 1112.954 644, 1111.238 644 C 1109.522 644, 1107.840 644.450, 1107.500 645 C 1107.160 645.550, 1105.896 646.007, 1104.691 646.015 C 1102.601 646.029, 1096.621 647.847, 1094.500 649.113 C 1093.950 649.441, 1091.362 650.323, 1088.750 651.073 C 1086.138 651.823, 1084 652.788, 1084 653.218 C 1084 653.648, 1083.100 654, 1082 654 C 1080.900 654, 1080 654.340, 1080 654.756 C 1080 655.172, 1078.537 656.148, 1076.750 656.925 C 1072.313 658.854, 1059.924 667.242, 1054.810 671.779 C 1049.019 676.917, 1046.502 679.457, 1039 687.731 C 1034.062 693.178, 1032.362 694.511, 1031.926 693.277 C 1031.611 692.384, 1031.454 683.294, 1031.579 673.077 C 1031.720 661.526, 1031.418 654.027, 1030.780 653.250 C 1029.980 652.275, 1016.166 652, 967.878 652 L 906 652 906 869 L 906 1086 968.970 1086 L 1031.940 1086 1032.379 963.250 C 1032.657 885.604, 1033.208 837.377, 1033.878 832 C 1034.461 827.325, 1035.220 821.250, 1035.566 818.500 C 1035.911 815.750, 1036.600 813.073, 1037.097 812.550 C 1037.594 812.028, 1038 810.784, 1038 809.786 C 1038 808.789, 1038.397 807.191, 1038.883 806.236 C 1039.369 805.281, 1040.322 803.150, 1041 801.500 C 1044.762 792.349, 1047.324 788.655, 1055.604 780.438 C 1066.515 769.609, 1081.044 764.513, 1100.500 764.689 C 1111.421 764.789, 1118.967 765.701, 1120.450 767.102 C 1120.972 767.596, 1122.260 768, 1123.310 768 C 1126.683 768, 1137.330 774.348, 1142.599 779.500 C 1147.783 784.570, 1152.469 791.047, 1154.897 796.500 C 1155.632 798.150, 1156.631 800.281, 1157.117 801.236 C 1157.603 802.191, 1158 804.077, 1158 805.427 C 1158 806.777, 1158.402 808.131, 1158.894 808.435 C 1159.386 808.739, 1160.075 810.903, 1160.424 813.244 C 1160.774 815.585, 1161.549 820.650, 1162.147 824.500 C 1162.872 829.162, 1163.370 874.005, 1163.640 958.750 L 1164.044 1086 1228.011 1086 L 1291.977 1086 1292.379 960.250 C 1292.600 891.087, 1293.095 831.800, 1293.478 828.500 C 1293.862 825.200, 1294.586 822.073, 1295.088 821.550 C 1295.590 821.028, 1296 818.917, 1296 816.859 C 1296 814.801, 1296.450 812.840, 1297 812.500 C 1297.550 812.160, 1298 811.002, 1298 809.927 C 1298 808.852, 1298.397 807.191, 1298.883 806.236 C 1299.369 805.281, 1300.269 803.263, 1300.883 801.750 C 1304.831 792.029, 1308.602 786.273, 1315.333 779.693 C 1318.038 777.049, 1321.995 774.130, 1324.126 773.207 C 1326.256 772.284, 1328 771.184, 1328 770.764 C 1328 770.344, 1328.681 770, 1329.514 770 C 1330.346 770, 1331.809 769.594, 1332.764 769.097 C 1334.933 767.970, 1340.673 766.469, 1348.631 764.949 C 1360.282 762.723, 1379.277 765.390, 1391.437 770.959 C 1400.620 775.165, 1416 793.351, 1416 800.003 C 1416 801.036, 1416.450 802.160, 1417 802.500 C 1417.550 802.840, 1418 804.190, 1418 805.500 C 1418 806.810, 1418.450 808.160, 1419 808.500 C 1419.550 808.840, 1420 810.696, 1420 812.625 C 1420 814.553, 1420.563 817.114, 1421.250 818.316 C 1422.226 820.021, 1422.610 849.581, 1423 953 L 1423.500 1085.500 1487.771 1085.757 L 1552.041 1086.015 1551.626 948.757 C 1551.351 857.895, 1550.838 808.289, 1550.109 802 C 1549.117 793.447, 1548.499 788.748, 1546.427 774 C 1546.080 771.525, 1545.391 769.073, 1544.898 768.550 C 1544.404 768.028, 1544 766.142, 1544 764.359 C 1544 762.576, 1543.550 760.840, 1543 760.500 C 1542.450 760.160, 1542 758.928, 1542 757.762 C 1542 755.510, 1540.337 749.653, 1538.877 746.764 C 1538.395 745.809, 1538 744.340, 1538 743.500 C 1538 742.660, 1537.588 741.191, 1537.084 740.236 C 1536.580 739.281, 1535.406 736.700, 1534.475 734.500 C 1533.544 732.300, 1532.156 729.193, 1531.391 727.596 C 1530.626 725.999, 1530 724.087, 1530 723.346 C 1530 722.606, 1529.550 722, 1529 722 C 1528.450 722, 1528 721.100, 1528 720 C 1528 718.900, 1527.550 718, 1527 718 C 1526.450 718, 1526 717.100, 1526 716 C 1526 714.900, 1525.580 714, 1525.067 714 C 1524.554 714, 1523.867 713.155, 1523.539 712.122 C 1523.211 711.090, 1521.831 708.952, 1520.473 707.372 C 1519.114 705.793, 1518.002 703.938, 1518.001 703.250 C 1518.001 702.563, 1517.647 702, 1517.216 702 C 1516.784 702, 1515.698 700.763, 1514.802 699.250 C 1510.292 691.638, 1492.335 673.678, 1484.750 669.194 C 1483.237 668.300, 1482 667.216, 1482 666.784 C 1482 666.353, 1481.410 666, 1480.689 666 C 1479.967 666, 1478.504 665.212, 1477.438 664.250 C 1475.543 662.540, 1472.110 660.580, 1463 656.008 C 1460.525 654.766, 1457.719 653.356, 1456.764 652.875 C 1455.809 652.394, 1454.340 652, 1453.500 652 C 1452.660 652, 1451.079 651.550, 1449.986 651 C 1448.894 650.450, 1447.106 649.550, 1446.014 649 C 1444.921 648.450, 1442.923 648, 1441.573 648 C 1440.223 648, 1438.869 647.598, 1438.565 647.106 C 1438.261 646.614, 1436.322 645.962, 1434.256 645.656 C 1432.190 645.351, 1428.025 644.622, 1425 644.035 C 1400.846 639.351, 1371.629 640.096, 1348 645.999 C 1345.525 646.617, 1342.257 647.372, 1340.738 647.677 C 1339.219 647.981, 1337.729 648.629, 1337.429 649.115 C 1337.128 649.602, 1336.002 650, 1334.927 650 C 1333.852 650, 1332.191 650.397, 1331.236 650.883 C 1330.281 651.369, 1328.375 652.214, 1327 652.761 C 1319.562 655.719, 1309.475 661.106, 1301.500 666.380 C 1296.550 669.653, 1292.275 672.606, 1292 672.942 C 1291.725 673.278, 1288.576 676.016, 1285.001 679.026 C 1277.721 685.158, 1275.930 686.965, 1272.137 692 C 1270.686 693.925, 1268.487 696.620, 1267.250 697.990 C 1266.013 699.359, 1265 700.790, 1265 701.168 C 1265 702.183, 1262.006 705, 1260.929 705 C 1260.418 705, 1260 704.325, 1260 703.500 C 1260 702.675, 1259.550 702, 1259 702 C 1258.450 702, 1258 701.410, 1258 700.689 C 1258 699.967, 1257.100 698.411, 1256 697.230 C 1254.900 696.050, 1253.999 694.727, 1253.999 694.292 C 1253.998 693.856, 1252.873 692.193, 1251.499 690.594 C 1250.124 688.996, 1249 687.374, 1249 686.990 C 1249 685.843, 1233.783 670.628, 1230 667.993 C 1228.075 666.652, 1225.628 664.755, 1224.561 663.777 C 1223.495 662.800, 1222.070 662, 1221.395 662 C 1220.719 662, 1220.017 661.663, 1219.833 661.250 C 1219.416 660.311, 1214.090 657.064, 1211.750 656.322 C 1210.787 656.016, 1210 655.369, 1210 654.883 C 1210 654.398, 1209.410 654, 1208.688 654 C 1207.966 654, 1205.513 653.100, 1203.236 652 C 1200.959 650.900, 1198.619 650, 1198.035 650 C 1197.451 650, 1196.191 649.594, 1195.236 649.097 C 1193.615 648.255, 1190.461 647.348, 1181.250 645.075 C 1173.495 643.161, 1166.238 642.040, 1158 641.482 C 1153.325 641.166, 1148.150 640.761, 1146.500 640.583 C 1144.850 640.405, 1138.325 640.664, 1132 641.159 M 272.919 655.597 C 272.381 656.245, 271.887 742.888, 271.710 867.597 C 271.545 983.594, 271.072 1079.850, 270.658 1081.500 C 266.699 1097.281, 263.407 1104.529, 257.500 1110.474 C 252.280 1115.728, 246.822 1119.959, 245.236 1119.982 C 244.541 1119.992, 243.191 1120.397, 242.236 1120.883 C 234.479 1124.829, 231.734 1125.195, 206.250 1125.682 L 184 1126.106 184 1183.931 C 184 1228.998, 184.276 1241.973, 185.250 1242.741 C 189.898 1246.407, 248.152 1246.264, 266.500 1242.541 C 268.150 1242.207, 271.975 1241.450, 275 1240.859 C 278.025 1240.269, 281.625 1239.436, 283 1239.009 C 284.375 1238.582, 287.525 1237.678, 290 1237.002 C 292.475 1236.326, 295.512 1235.373, 296.750 1234.886 C 297.988 1234.399, 300.012 1233.604, 301.250 1233.120 C 306.773 1230.959, 321.881 1223.339, 325.680 1220.797 C 327.979 1219.258, 330.342 1218, 330.930 1218 C 331.519 1218, 332 1217.647, 332 1217.216 C 332 1216.784, 333.462 1215.580, 335.250 1214.540 C 339.467 1212.086, 360.086 1191.467, 362.540 1187.250 C 363.580 1185.463, 364.730 1184, 365.094 1184 C 365.459 1184, 366.317 1182.650, 367 1181 C 367.683 1179.350, 368.608 1178, 369.054 1178 C 369.500 1178, 370.150 1177.103, 370.498 1176.006 C 370.846 1174.909, 371.664 1173.429, 372.316 1172.717 C 374.215 1170.641, 376 1167.151, 376 1165.514 C 376 1164.681, 376.450 1164, 377 1164 C 377.550 1164, 378 1163.319, 378 1162.486 C 378 1161.654, 378.397 1160.191, 378.883 1159.236 C 379.369 1158.281, 380.269 1156.263, 380.883 1154.750 C 381.497 1153.237, 382.503 1150.763, 383.117 1149.250 C 383.731 1147.737, 384.631 1145.719, 385.117 1144.764 C 385.603 1143.809, 386 1142.148, 386 1141.073 C 386 1139.998, 386.450 1138.840, 387 1138.500 C 387.550 1138.160, 388 1136.360, 388 1134.500 C 388 1132.640, 388.402 1130.869, 388.894 1130.565 C 389.386 1130.261, 390.048 1128.322, 390.365 1126.256 C 390.682 1124.190, 391.427 1119.575, 392.019 1116 C 395.097 1097.436, 395.228 1088.645, 395.622 874.223 C 395.943 699.199, 395.772 655.854, 394.761 655.484 C 394.067 655.230, 366.574 654.905, 333.664 654.761 C 291.177 654.576, 273.565 654.818, 272.919 655.597 M 636.500 764.977 C 635.400 765.463, 633.064 765.891, 631.309 765.930 C 629.554 765.968, 627.840 766.450, 627.500 767 C 627.160 767.550, 625.987 768, 624.893 768 C 623.799 768, 621.041 768.900, 618.764 770 C 616.487 771.100, 614.034 772, 613.312 772 C 612.590 772, 612 772.450, 612 773 C 612 773.550, 611.100 774, 610 774 C 608.900 774, 608 774.398, 608 774.883 C 608 775.369, 607.212 776.016, 606.250 776.322 C 601.749 777.749, 595.733 782.419, 586.051 792 C 576.876 801.080, 574.649 803.882, 570.836 811.145 C 569.001 814.640, 567.163 817.650, 566.750 817.833 C 566.337 818.017, 566 819.029, 566 820.083 C 566 821.138, 565.550 822, 565 822 C 564.450 822, 564 822.873, 564 823.941 C 564 825.009, 563.550 826.160, 563 826.500 C 562.450 826.840, 562 828.190, 562 829.500 C 562 830.810, 561.602 832.128, 561.115 832.429 C 560.629 832.729, 559.974 834.219, 559.660 835.738 C 559.346 837.257, 558.542 840.750, 557.874 843.500 C 556.325 849.866, 556.234 888.763, 557.753 895 C 558.761 899.138, 559.643 902.348, 561.601 909 C 562.448 911.879, 572.099 931.251, 573.060 932 C 573.412 932.275, 574.245 933.533, 574.910 934.795 C 577.648 939.994, 595.784 958, 598.281 958 C 598.723 958, 599.992 958.847, 601.103 959.882 C 602.936 961.589, 613.153 966.939, 618.750 969.122 C 619.987 969.605, 622.013 970.416, 623.250 970.925 C 625.589 971.886, 627.458 972.326, 637.500 974.278 C 647.620 976.245, 677.123 975.228, 678.586 972.861 C 678.879 972.387, 680.415 972, 682 972 C 683.585 972, 685.160 971.550, 685.500 971 C 685.840 970.450, 686.998 970, 688.073 970 C 689.148 970, 690.809 969.599, 691.764 969.109 C 692.719 968.620, 695.750 967.157, 698.500 965.859 C 701.250 964.562, 703.650 963.163, 703.833 962.750 C 704.017 962.337, 704.719 962, 705.395 962 C 706.070 962, 707.495 961.200, 708.561 960.223 C 709.628 959.245, 712.075 957.356, 714 956.024 C 718.207 953.112, 731.999 939.582, 732.002 938.363 C 732.004 937.888, 733.353 935.925, 735 934 C 736.647 932.075, 737.996 929.975, 737.998 929.333 C 737.999 928.692, 738.337 928.017, 738.750 927.833 C 739.475 927.511, 743.219 920.113, 745.243 915 C 745.788 913.625, 746.631 911.719, 747.117 910.764 C 747.603 909.809, 748 908.148, 748 907.073 C 748 905.998, 748.450 904.840, 749 904.500 C 749.550 904.160, 750 902.585, 750 901 C 750 899.415, 750.450 897.840, 751 897.500 C 751.550 897.160, 752 894.749, 752 892.141 C 752 889.533, 752.471 886.929, 753.047 886.353 C 754.378 885.022, 753.679 853.718, 752.146 846 C 751.545 842.975, 750.767 838.808, 750.416 836.741 C 750.066 834.673, 749.379 832.734, 748.890 832.432 C 748.400 832.129, 748 830.810, 748 829.500 C 748 828.190, 747.550 826.840, 747 826.500 C 746.450 826.160, 746 825.009, 746 823.941 C 746 822.873, 745.550 822, 745 822 C 744.450 822, 744 821.368, 744 820.595 C 744 818.763, 739.992 811.047, 737.750 808.562 C 736.788 807.496, 736 806.033, 736 805.311 C 736 804.590, 735.647 804, 735.216 804 C 734.784 804, 733.633 802.649, 732.657 800.997 C 728.997 794.800, 710.430 778, 707.242 778 C 706.651 778, 706.017 777.663, 705.833 777.250 C 705.501 776.502, 700.743 774.085, 691.761 770.102 C 689.154 768.946, 685.918 768, 684.570 768 C 683.221 768, 681.869 767.598, 681.565 767.106 C 681.261 766.614, 679.097 765.892, 676.756 765.501 C 670.150 764.398, 638.740 763.990, 636.500 764.977"/>
  </g>
  <g id="exclamation" fill="#0E9C47">
    <path id="excl-bar" transform="translate(271.90 211.77) scale(0.8211 0.5359)" d="M 1634.395 547.245 C 1634.897 602.904, 1635.648 658.728, 1637.990 814.500 C 1638.527 850.250, 1639.422 910.550, 1639.978 948.500 C 1640.535 986.450, 1641.448 1045.625, 1642.008 1080 C 1642.569 1114.375, 1643.412 1170.175, 1643.882 1204 C 1644.352 1237.825, 1644.796 1265.612, 1644.868 1265.750 C 1644.941 1265.888, 1679.365 1266, 1721.367 1266 L 1797.734 1266 1798.403 1247.250 C 1798.771 1236.938, 1799.512 1218.150, 1800.050 1205.500 C 1800.978 1183.652, 1801.749 1163.962, 1803.977 1105.250 C 1804.514 1091.088, 1805.432 1069.150, 1806.017 1056.500 C 1806.602 1043.850, 1807.504 1022.475, 1808.022 1009 C 1808.540 995.525, 1809.430 973.700, 1809.999 960.500 C 1810.568 947.300, 1811.463 925.025, 1811.988 911 C 1813.105 881.177, 1814.631 843.060, 1816.032 810 C 1817.196 782.520, 1818.590 746.562, 1819.985 708 C 1820.532 692.875, 1821.439 668.800, 1822.001 654.500 C 1822.563 640.200, 1823.441 617.250, 1823.951 603.500 C 1824.462 589.750, 1825.439 564.775, 1826.121 548 C 1826.804 531.225, 1827.394 510.975, 1827.431 503 L 1827.500 488.500 1730.680 488.245 L 1633.859 487.990 1634.395 547.245"/>
    <path id="excl-dot" transform="translate(280.04 -149.19) scale(0.8211)" d="M 1708.500 1310.972 C 1707.400 1311.460, 1704.614 1311.891, 1702.309 1311.930 C 1700.004 1311.968, 1697.840 1312.450, 1697.500 1313 C 1697.160 1313.550, 1696.002 1314, 1694.927 1314 C 1693.852 1314, 1692.191 1314.397, 1691.236 1314.883 C 1690.281 1315.369, 1688.375 1316.214, 1687 1316.761 C 1682.987 1318.357, 1670.547 1324.407, 1670 1325.028 C 1669.725 1325.341, 1667.925 1326.679, 1666 1328.002 C 1661.535 1331.070, 1649.187 1343.430, 1646.021 1348 C 1644.687 1349.925, 1643.350 1351.725, 1643.048 1352 C 1641.163 1353.719, 1632 1372.031, 1632 1374.079 C 1632 1375.071, 1631.550 1376.160, 1631 1376.500 C 1630.450 1376.840, 1630 1378.415, 1630 1380 C 1630 1381.585, 1629.611 1383.122, 1629.136 1383.416 C 1626.097 1385.294, 1625.959 1421.759, 1628.957 1431 C 1629.403 1432.375, 1630.348 1435.525, 1631.058 1438 C 1631.767 1440.475, 1632.720 1442.928, 1633.174 1443.450 C 1633.628 1443.973, 1634 1445.210, 1634 1446.200 C 1634 1447.190, 1634.450 1448, 1635 1448 C 1635.550 1448, 1636 1448.632, 1636 1449.405 C 1636 1451.237, 1640.008 1458.953, 1642.250 1461.438 C 1643.213 1462.504, 1644 1463.727, 1644 1464.155 C 1644 1465.609, 1657.707 1480.299, 1662.617 1484.107 C 1663.757 1484.991, 1667.347 1487.479, 1670.595 1489.634 C 1676.226 1493.372, 1678.538 1494.594, 1684.750 1497.117 C 1686.263 1497.731, 1688.281 1498.631, 1689.236 1499.117 C 1690.191 1499.603, 1691.852 1500, 1692.927 1500 C 1694.002 1500, 1695.160 1500.450, 1695.500 1501 C 1695.840 1501.550, 1697.246 1502, 1698.625 1502 C 1700.003 1502, 1702 1502.465, 1703.061 1503.033 C 1705.462 1504.318, 1736.906 1504.398, 1740.152 1503.127 C 1741.444 1502.622, 1744.525 1501.660, 1747 1500.990 C 1751.369 1499.808, 1752.985 1499.241, 1758.750 1496.868 C 1772.101 1491.375, 1787.084 1479.789, 1795.600 1468.373 C 1797.189 1466.243, 1798.716 1464.275, 1798.994 1464 C 1799.922 1463.083, 1803.040 1457.546, 1804.766 1453.750 C 1805.704 1451.688, 1806.816 1450, 1807.236 1450 C 1807.656 1450, 1808 1449.319, 1808 1448.486 C 1808 1447.654, 1808.450 1446.079, 1809 1444.986 C 1809.550 1443.894, 1810.450 1442.106, 1811 1441.014 C 1811.550 1439.921, 1812 1437.923, 1812 1436.573 C 1812 1435.223, 1812.402 1433.869, 1812.894 1433.565 C 1813.386 1433.261, 1814.118 1431.097, 1814.520 1428.756 C 1815.482 1423.153, 1815.571 1391.342, 1814.636 1387.500 C 1813.051 1380.994, 1811.726 1376.387, 1810.752 1374 C 1810.191 1372.625, 1809.290 1370.375, 1808.749 1369 C 1808.208 1367.625, 1807.130 1365.375, 1806.353 1364 C 1805.576 1362.625, 1804.230 1359.813, 1803.362 1357.750 C 1802.493 1355.688, 1801.382 1354, 1800.891 1354 C 1800.401 1354, 1799.994 1353.438, 1799.987 1352.750 C 1799.950 1348.984, 1777.034 1326.073, 1773.250 1326.018 C 1772.563 1326.008, 1771.996 1325.662, 1771.992 1325.250 C 1771.988 1324.838, 1770.975 1324.005, 1769.742 1323.399 C 1768.509 1322.794, 1765.475 1321.267, 1763 1320.007 C 1760.525 1318.747, 1757.487 1317.330, 1756.250 1316.858 C 1755.013 1316.386, 1752.987 1315.601, 1751.750 1315.114 C 1748.893 1313.989, 1742.522 1312.276, 1738 1311.417 C 1732.307 1310.336, 1710.668 1310.009, 1708.500 1310.972"/>
  </g>
</svg>
